<svg xmlns="http://www.w3.org/2000/svg" xmlns:xlink="http://www.w3.org/1999/xlink" width="500" zoomAndPan="magnify" viewBox="0 0 375 149.999998" height="200" preserveAspectRatio="xMidYMid meet" version="1.0"><defs><g/><clipPath id="f75786e7ea"><path d="M 60 24.242188 L 86 24.242188 L 86 111 L 60 111 Z M 60 24.242188 " clip-rule="nonzero"/></clipPath><clipPath id="62d2106404"><path d="M 73.175781 110.96875 C 66.453125 110.96875 60.957031 105.472656 60.957031 98.753906 L 60.957031 36.628906 C 60.957031 29.910156 66.453125 24.414062 73.175781 24.414062 C 79.894531 24.414062 85.390625 29.910156 85.390625 36.628906 L 85.390625 98.753906 C 85.390625 105.558594 79.980469 110.96875 73.175781 110.96875 Z M 73.175781 110.96875 " clip-rule="nonzero"/></clipPath><linearGradient x1="74.092725" gradientTransform="matrix(0.426206, 0, 0, 0.426206, 33.960815, 24.251497)" y1="-3.596661" x2="147.082016" gradientUnits="userSpaceOnUse" y2="193.692315" id="241bd0ed0d"><stop stop-opacity="1" stop-color="rgb(85.099792%, 85.099792%, 85.099792%)" offset="0"/><stop stop-opacity="1" stop-color="rgb(85.125732%, 85.125732%, 85.125732%)" offset="0.0625"/><stop stop-opacity="1" stop-color="rgb(85.279846%, 85.279846%, 85.279846%)" offset="0.078125"/><stop stop-opacity="1" stop-color="rgb(85.53772%, 85.53772%, 85.53772%)" offset="0.09375"/><stop stop-opacity="1" stop-color="rgb(85.794067%, 85.794067%, 85.794067%)" offset="0.0945687"/><stop stop-opacity="1" stop-color="rgb(85.923767%, 85.923767%, 85.923767%)" offset="0.109375"/><stop stop-opacity="1" stop-color="rgb(86.051941%, 86.051941%, 86.051941%)" offset="0.125"/><stop stop-opacity="1" stop-color="rgb(86.309814%, 86.309814%, 86.309814%)" offset="0.140625"/><stop stop-opacity="1" stop-color="rgb(86.566162%, 86.566162%, 86.566162%)" offset="0.15625"/><stop stop-opacity="1" stop-color="rgb(86.824036%, 86.824036%, 86.824036%)" offset="0.171875"/><stop stop-opacity="1" stop-color="rgb(87.081909%, 87.081909%, 87.081909%)" offset="0.1875"/><stop stop-opacity="1" stop-color="rgb(87.338257%, 87.338257%, 87.338257%)" offset="0.203125"/><stop stop-opacity="1" stop-color="rgb(87.59613%, 87.59613%, 87.59613%)" offset="0.21875"/><stop stop-opacity="1" stop-color="rgb(87.854004%, 87.854004%, 87.854004%)" offset="0.234375"/><stop stop-opacity="1" stop-color="rgb(88.110352%, 88.110352%, 88.110352%)" offset="0.25"/><stop stop-opacity="1" stop-color="rgb(88.368225%, 88.368225%, 88.368225%)" offset="0.265625"/><stop stop-opacity="1" stop-color="rgb(88.626099%, 88.626099%, 88.626099%)" offset="0.28125"/><stop stop-opacity="1" stop-color="rgb(88.883972%, 88.883972%, 88.883972%)" offset="0.296875"/><stop stop-opacity="1" stop-color="rgb(89.14032%, 89.14032%, 89.14032%)" offset="0.3125"/><stop stop-opacity="1" stop-color="rgb(89.398193%, 89.398193%, 89.398193%)" offset="0.328125"/><stop stop-opacity="1" stop-color="rgb(89.656067%, 89.656067%, 89.656067%)" offset="0.34375"/><stop stop-opacity="1" stop-color="rgb(89.912415%, 89.912415%, 89.912415%)" offset="0.359375"/><stop stop-opacity="1" stop-color="rgb(90.170288%, 90.170288%, 90.170288%)" offset="0.375"/><stop stop-opacity="1" stop-color="rgb(90.428162%, 90.428162%, 90.428162%)" offset="0.390625"/><stop stop-opacity="1" stop-color="rgb(90.684509%, 90.684509%, 90.684509%)" offset="0.40625"/><stop stop-opacity="1" stop-color="rgb(90.942383%, 90.942383%, 90.942383%)" offset="0.421875"/><stop stop-opacity="1" stop-color="rgb(91.200256%, 91.200256%, 91.200256%)" offset="0.4375"/><stop stop-opacity="1" stop-color="rgb(91.456604%, 91.456604%, 91.456604%)" offset="0.453125"/><stop stop-opacity="1" stop-color="rgb(91.714478%, 91.714478%, 91.714478%)" offset="0.46875"/><stop stop-opacity="1" stop-color="rgb(91.972351%, 91.972351%, 91.972351%)" offset="0.484375"/><stop stop-opacity="1" stop-color="rgb(92.230225%, 92.230225%, 92.230225%)" offset="0.5"/><stop stop-opacity="1" stop-color="rgb(92.486572%, 92.486572%, 92.486572%)" offset="0.515625"/><stop stop-opacity="1" stop-color="rgb(92.744446%, 92.744446%, 92.744446%)" offset="0.53125"/><stop stop-opacity="1" stop-color="rgb(93.002319%, 93.002319%, 93.002319%)" offset="0.546875"/><stop stop-opacity="1" stop-color="rgb(93.258667%, 93.258667%, 93.258667%)" offset="0.5625"/><stop stop-opacity="1" stop-color="rgb(93.516541%, 93.516541%, 93.516541%)" offset="0.578125"/><stop stop-opacity="1" stop-color="rgb(93.774414%, 93.774414%, 93.774414%)" offset="0.59375"/><stop stop-opacity="1" stop-color="rgb(94.030762%, 94.030762%, 94.030762%)" offset="0.609375"/><stop stop-opacity="1" stop-color="rgb(94.288635%, 94.288635%, 94.288635%)" offset="0.625"/><stop stop-opacity="1" stop-color="rgb(94.546509%, 94.546509%, 94.546509%)" offset="0.640625"/><stop stop-opacity="1" stop-color="rgb(94.802856%, 94.802856%, 94.802856%)" offset="0.65625"/><stop stop-opacity="1" stop-color="rgb(95.06073%, 95.06073%, 95.06073%)" offset="0.671875"/><stop stop-opacity="1" stop-color="rgb(95.318604%, 95.318604%, 95.318604%)" offset="0.6875"/><stop stop-opacity="1" stop-color="rgb(95.574951%, 95.574951%, 95.574951%)" offset="0.703125"/><stop stop-opacity="1" stop-color="rgb(95.832825%, 95.832825%, 95.832825%)" offset="0.71875"/><stop stop-opacity="1" stop-color="rgb(96.090698%, 96.090698%, 96.090698%)" offset="0.734375"/><stop stop-opacity="1" stop-color="rgb(96.348572%, 96.348572%, 96.348572%)" offset="0.75"/><stop stop-opacity="1" stop-color="rgb(96.604919%, 96.604919%, 96.604919%)" offset="0.765625"/><stop stop-opacity="1" stop-color="rgb(96.862793%, 96.862793%, 96.862793%)" offset="0.78125"/><stop stop-opacity="1" stop-color="rgb(97.120667%, 97.120667%, 97.120667%)" offset="0.796875"/><stop stop-opacity="1" stop-color="rgb(97.377014%, 97.377014%, 97.377014%)" offset="0.8125"/><stop stop-opacity="1" stop-color="rgb(97.634888%, 97.634888%, 97.634888%)" offset="0.828125"/><stop stop-opacity="1" stop-color="rgb(97.892761%, 97.892761%, 97.892761%)" offset="0.84375"/><stop stop-opacity="1" stop-color="rgb(98.149109%, 98.149109%, 98.149109%)" offset="0.859375"/><stop stop-opacity="1" stop-color="rgb(98.406982%, 98.406982%, 98.406982%)" offset="0.875"/><stop stop-opacity="1" stop-color="rgb(98.664856%, 98.664856%, 98.664856%)" offset="0.890625"/><stop stop-opacity="1" stop-color="rgb(98.921204%, 98.921204%, 98.921204%)" offset="0.905431"/><stop stop-opacity="1" stop-color="rgb(99.050903%, 99.050903%, 99.050903%)" offset="0.90625"/><stop stop-opacity="1" stop-color="rgb(99.179077%, 99.179077%, 99.179077%)" offset="0.921875"/><stop stop-opacity="1" stop-color="rgb(99.436951%, 99.436951%, 99.436951%)" offset="0.9375"/><stop stop-opacity="1" stop-color="rgb(99.694824%, 99.694824%, 99.694824%)" offset="0.953125"/><stop stop-opacity="1" stop-color="rgb(99.911499%, 99.911499%, 99.911499%)" offset="0.96875"/><stop stop-opacity="1" stop-color="rgb(100%, 100%, 100%)" offset="1"/></linearGradient><clipPath id="f955dc9502"><path d="M 34 24.242188 L 112.710938 24.242188 L 112.710938 49 L 34 49 Z M 34 24.242188 " clip-rule="nonzero"/></clipPath><clipPath id="3ae8146761"><path d="M 99.964844 48.84375 L 46.382812 48.84375 C 39.664062 48.84375 34.164062 43.347656 34.164062 36.628906 C 34.164062 29.910156 39.664062 24.414062 46.382812 24.414062 L 99.964844 24.414062 C 106.6875 24.414062 112.183594 29.910156 112.183594 36.628906 C 112.183594 43.347656 106.773438 48.84375 99.964844 48.84375 Z M 99.964844 48.84375 " clip-rule="nonzero"/></clipPath><linearGradient x1="-4.739589" gradientTransform="matrix(0.426206, 0, 0, 0.426206, 33.960815, 24.251497)" y1="27.755779" x2="182.443158" gradientUnits="userSpaceOnUse" y2="63.427105" id="68843236aa"><stop stop-opacity="1" stop-color="rgb(85.099792%, 85.099792%, 85.099792%)" offset="0"/><stop stop-opacity="1" stop-color="rgb(85.145569%, 85.145569%, 85.145569%)" offset="0.03125"/><stop stop-opacity="1" stop-color="rgb(85.314941%, 85.314941%, 85.314941%)" offset="0.046875"/><stop stop-opacity="1" stop-color="rgb(85.560608%, 85.560608%, 85.560608%)" offset="0.0563132"/><stop stop-opacity="1" stop-color="rgb(85.682678%, 85.682678%, 85.682678%)" offset="0.0625"/><stop stop-opacity="1" stop-color="rgb(85.804749%, 85.804749%, 85.804749%)" offset="0.078125"/><stop stop-opacity="1" stop-color="rgb(86.050415%, 86.050415%, 86.050415%)" offset="0.09375"/><stop stop-opacity="1" stop-color="rgb(86.296082%, 86.296082%, 86.296082%)" offset="0.109375"/><stop stop-opacity="1" stop-color="rgb(86.541748%, 86.541748%, 86.541748%)" offset="0.125"/><stop stop-opacity="1" stop-color="rgb(86.787415%, 86.787415%, 86.787415%)" offset="0.140625"/><stop stop-opacity="1" stop-color="rgb(87.033081%, 87.033081%, 87.033081%)" offset="0.15625"/><stop stop-opacity="1" stop-color="rgb(87.277222%, 87.277222%, 87.277222%)" offset="0.171875"/><stop stop-opacity="1" stop-color="rgb(87.522888%, 87.522888%, 87.522888%)" offset="0.1875"/><stop stop-opacity="1" stop-color="rgb(87.768555%, 87.768555%, 87.768555%)" offset="0.203125"/><stop stop-opacity="1" stop-color="rgb(88.014221%, 88.014221%, 88.014221%)" offset="0.21875"/><stop stop-opacity="1" stop-color="rgb(88.259888%, 88.259888%, 88.259888%)" offset="0.234375"/><stop stop-opacity="1" stop-color="rgb(88.505554%, 88.505554%, 88.505554%)" offset="0.25"/><stop stop-opacity="1" stop-color="rgb(88.751221%, 88.751221%, 88.751221%)" offset="0.265625"/><stop stop-opacity="1" stop-color="rgb(88.995361%, 88.995361%, 88.995361%)" offset="0.28125"/><stop stop-opacity="1" stop-color="rgb(89.241028%, 89.241028%, 89.241028%)" offset="0.296875"/><stop stop-opacity="1" stop-color="rgb(89.486694%, 89.486694%, 89.486694%)" offset="0.3125"/><stop stop-opacity="1" stop-color="rgb(89.732361%, 89.732361%, 89.732361%)" offset="0.328125"/><stop stop-opacity="1" stop-color="rgb(89.978027%, 89.978027%, 89.978027%)" offset="0.34375"/><stop stop-opacity="1" stop-color="rgb(90.223694%, 90.223694%, 90.223694%)" offset="0.359375"/><stop stop-opacity="1" stop-color="rgb(90.46936%, 90.46936%, 90.46936%)" offset="0.375"/><stop stop-opacity="1" stop-color="rgb(90.713501%, 90.713501%, 90.713501%)" offset="0.390625"/><stop stop-opacity="1" stop-color="rgb(90.959167%, 90.959167%, 90.959167%)" offset="0.40625"/><stop stop-opacity="1" stop-color="rgb(91.204834%, 91.204834%, 91.204834%)" offset="0.421875"/><stop stop-opacity="1" stop-color="rgb(91.4505%, 91.4505%, 91.4505%)" offset="0.4375"/><stop stop-opacity="1" stop-color="rgb(91.696167%, 91.696167%, 91.696167%)" offset="0.453125"/><stop stop-opacity="1" stop-color="rgb(91.941833%, 91.941833%, 91.941833%)" offset="0.46875"/><stop stop-opacity="1" stop-color="rgb(92.1875%, 92.1875%, 92.1875%)" offset="0.484375"/><stop stop-opacity="1" stop-color="rgb(92.431641%, 92.431641%, 92.431641%)" offset="0.5"/><stop stop-opacity="1" stop-color="rgb(92.677307%, 92.677307%, 92.677307%)" offset="0.515625"/><stop stop-opacity="1" stop-color="rgb(92.922974%, 92.922974%, 92.922974%)" offset="0.53125"/><stop stop-opacity="1" stop-color="rgb(93.16864%, 93.16864%, 93.16864%)" offset="0.546875"/><stop stop-opacity="1" stop-color="rgb(93.414307%, 93.414307%, 93.414307%)" offset="0.5625"/><stop stop-opacity="1" stop-color="rgb(93.659973%, 93.659973%, 93.659973%)" offset="0.578125"/><stop stop-opacity="1" stop-color="rgb(93.904114%, 93.904114%, 93.904114%)" offset="0.59375"/><stop stop-opacity="1" stop-color="rgb(94.14978%, 94.14978%, 94.14978%)" offset="0.609375"/><stop stop-opacity="1" stop-color="rgb(94.395447%, 94.395447%, 94.395447%)" offset="0.625"/><stop stop-opacity="1" stop-color="rgb(94.641113%, 94.641113%, 94.641113%)" offset="0.640625"/><stop stop-opacity="1" stop-color="rgb(94.88678%, 94.88678%, 94.88678%)" offset="0.65625"/><stop stop-opacity="1" stop-color="rgb(95.132446%, 95.132446%, 95.132446%)" offset="0.671875"/><stop stop-opacity="1" stop-color="rgb(95.378113%, 95.378113%, 95.378113%)" offset="0.6875"/><stop stop-opacity="1" stop-color="rgb(95.622253%, 95.622253%, 95.622253%)" offset="0.703125"/><stop stop-opacity="1" stop-color="rgb(95.86792%, 95.86792%, 95.86792%)" offset="0.71875"/><stop stop-opacity="1" stop-color="rgb(96.113586%, 96.113586%, 96.113586%)" offset="0.734375"/><stop stop-opacity="1" stop-color="rgb(96.359253%, 96.359253%, 96.359253%)" offset="0.75"/><stop stop-opacity="1" stop-color="rgb(96.604919%, 96.604919%, 96.604919%)" offset="0.765625"/><stop stop-opacity="1" stop-color="rgb(96.850586%, 96.850586%, 96.850586%)" offset="0.78125"/><stop stop-opacity="1" stop-color="rgb(97.096252%, 97.096252%, 97.096252%)" offset="0.796875"/><stop stop-opacity="1" stop-color="rgb(97.340393%, 97.340393%, 97.340393%)" offset="0.8125"/><stop stop-opacity="1" stop-color="rgb(97.58606%, 97.58606%, 97.58606%)" offset="0.828125"/><stop stop-opacity="1" stop-color="rgb(97.831726%, 97.831726%, 97.831726%)" offset="0.84375"/><stop stop-opacity="1" stop-color="rgb(98.077393%, 98.077393%, 98.077393%)" offset="0.859375"/><stop stop-opacity="1" stop-color="rgb(98.323059%, 98.323059%, 98.323059%)" offset="0.875"/><stop stop-opacity="1" stop-color="rgb(98.568726%, 98.568726%, 98.568726%)" offset="0.890625"/><stop stop-opacity="1" stop-color="rgb(98.814392%, 98.814392%, 98.814392%)" offset="0.90625"/><stop stop-opacity="1" stop-color="rgb(99.058533%, 99.058533%, 99.058533%)" offset="0.921875"/><stop stop-opacity="1" stop-color="rgb(99.304199%, 99.304199%, 99.304199%)" offset="0.9375"/><stop stop-opacity="1" stop-color="rgb(99.549866%, 99.549866%, 99.549866%)" offset="0.943687"/><stop stop-opacity="1" stop-color="rgb(99.673462%, 99.673462%, 99.673462%)" offset="0.953125"/><stop stop-opacity="1" stop-color="rgb(99.795532%, 99.795532%, 99.795532%)" offset="0.96875"/><stop stop-opacity="1" stop-color="rgb(99.958801%, 99.958801%, 99.958801%)" offset="1"/></linearGradient><clipPath id="a86a8f4fda"><path d="M 300 44 L 320 44 L 320 72.167969 L 300 72.167969 Z M 300 44 " clip-rule="nonzero"/></clipPath><clipPath id="ef391219b9"><path d="M 309 40.667969 L 311 40.667969 L 311 43 L 309 43 Z M 309 40.667969 " clip-rule="nonzero"/></clipPath><clipPath id="9ec5014a76"><path d="M 296.578125 53 L 299 53 L 299 55 L 296.578125 55 Z M 296.578125 53 " clip-rule="nonzero"/></clipPath><clipPath id="1b9b6b6135"><path d="M 321 53 L 323.578125 53 L 323.578125 55 L 321 55 Z M 321 53 " clip-rule="nonzero"/></clipPath></defs><g clip-path="url(#f75786e7ea)"><g clip-path="url(#62d2106404)"><path fill="url(#241bd0ed0d)" d="M 60.957031 24.414062 L 60.957031 110.96875 L 85.390625 110.96875 L 85.390625 24.414062 Z M 60.957031 24.414062 " fill-rule="nonzero"/></g></g><g clip-path="url(#f955dc9502)"><g clip-path="url(#3ae8146761)"><path fill="url(#68843236aa)" d="M 34.164062 24.414062 L 34.164062 48.84375 L 112.183594 48.84375 L 112.183594 24.414062 Z M 34.164062 24.414062 " fill-rule="nonzero"/></g></g><g fill="#ffffff" fill-opacity="1"><g transform="translate(92.915231, 96.853653)"><g><path d="M 31.25 -15.15625 C 31.25 -13.738281 31.132812 -12.644531 30.90625 -11.875 L 9.75 -11.875 C 10.164062 -10.101562 11 -8.71875 12.25 -7.71875 C 13.5 -6.726562 15.007812 -6.234375 16.78125 -6.234375 C 18.925781 -6.234375 20.675781 -6.960938 22.03125 -8.421875 L 30.265625 -8.421875 C 29.691406 -6.992188 28.78125 -5.566406 27.53125 -4.140625 C 26.28125 -2.722656 24.734375 -1.550781 22.890625 -0.625 C 21.046875 0.289062 19.046875 0.75 16.890625 0.75 C 14.160156 0.75 11.640625 0.0546875 9.328125 -1.328125 C 7.023438 -2.710938 5.203125 -4.585938 3.859375 -6.953125 C 2.515625 -9.316406 1.84375 -11.898438 1.84375 -14.703125 C 1.84375 -17.429688 2.523438 -19.988281 3.890625 -22.375 C 5.253906 -24.757812 7.085938 -26.648438 9.390625 -28.046875 C 11.703125 -29.453125 14.164062 -30.15625 16.78125 -30.15625 C 19.425781 -30.15625 21.851562 -29.5 24.0625 -28.1875 C 26.28125 -26.882812 28.03125 -25.085938 29.3125 -22.796875 C 30.601562 -20.515625 31.25 -17.96875 31.25 -15.15625 Z M 16.78125 -23.171875 C 15.082031 -23.171875 13.597656 -22.660156 12.328125 -21.640625 C 11.066406 -20.628906 10.207031 -19.238281 9.75 -17.46875 L 23.703125 -17.46875 C 23.234375 -19.195312 22.375 -20.578125 21.125 -21.609375 C 19.875 -22.648438 18.425781 -23.171875 16.78125 -23.171875 Z M 16.78125 -23.171875 "/></g></g></g><g fill="#ffffff" fill-opacity="1"><g transform="translate(124.561247, 96.853653)"><g><path d="M 13.71875 0.75 C 11.332031 0.75 9.226562 0.316406 7.40625 -0.546875 C 5.582031 -1.410156 4.171875 -2.601562 3.171875 -4.125 C 2.171875 -5.644531 1.632812 -7.34375 1.5625 -9.21875 L 9.21875 -9.21875 C 9.300781 -8.101562 9.753906 -7.207031 10.578125 -6.53125 C 11.398438 -5.863281 12.445312 -5.53125 13.71875 -5.53125 C 14.945312 -5.53125 15.894531 -5.789062 16.5625 -6.3125 C 17.238281 -6.832031 17.578125 -7.476562 17.578125 -8.25 C 17.578125 -9.207031 17.113281 -9.953125 16.1875 -10.484375 C 15.269531 -11.023438 13.832031 -11.601562 11.875 -12.21875 C 9.875 -12.832031 8.226562 -13.445312 6.9375 -14.0625 C 5.65625 -14.675781 4.550781 -15.566406 3.625 -16.734375 C 2.707031 -17.910156 2.25 -19.425781 2.25 -21.28125 C 2.25 -22.96875 2.691406 -24.484375 3.578125 -25.828125 C 4.460938 -27.171875 5.75 -28.226562 7.4375 -29 C 9.125 -29.769531 11.140625 -30.15625 13.484375 -30.15625 C 15.710938 -30.15625 17.679688 -29.734375 19.390625 -28.890625 C 21.109375 -28.046875 22.445312 -26.878906 23.40625 -25.390625 C 24.363281 -23.910156 24.921875 -22.269531 25.078125 -20.46875 L 17.359375 -20.46875 C 17.085938 -22.738281 15.796875 -23.875 13.484375 -23.875 C 12.367188 -23.875 11.523438 -23.648438 10.953125 -23.203125 C 10.378906 -22.765625 10.09375 -22.195312 10.09375 -21.5 C 10.09375 -20.65625 10.523438 -19.992188 11.390625 -19.515625 C 12.253906 -19.035156 13.644531 -18.507812 15.5625 -17.9375 C 17.601562 -17.320312 19.273438 -16.710938 20.578125 -16.109375 C 21.890625 -15.515625 23.023438 -14.613281 23.984375 -13.40625 C 24.941406 -12.195312 25.421875 -10.628906 25.421875 -8.703125 C 25.421875 -5.898438 24.390625 -3.625 22.328125 -1.875 C 20.273438 -0.125 17.40625 0.75 13.71875 0.75 Z M 13.71875 0.75 "/></g></g></g><g fill="#ffffff" fill-opacity="1"><g transform="translate(150.327602, 96.853653)"><g><path d="M 15.34375 0.75 C 12.414062 0.75 10.03125 -0.207031 8.1875 -2.125 C 6.34375 -4.050781 5.421875 -6.664062 5.421875 -9.96875 L 5.421875 -22.421875 L 0.859375 -22.421875 L 0.859375 -28.828125 L 2.890625 -28.828125 C 4.003906 -28.828125 4.867188 -29.125 5.484375 -29.71875 C 6.097656 -30.3125 6.40625 -31.164062 6.40625 -32.28125 L 6.40625 -36.78125 L 13.265625 -36.78125 L 13.265625 -29.40625 L 19.3125 -29.40625 L 19.3125 -22.421875 L 13.265625 -22.421875 L 13.265625 -10.78125 C 13.265625 -9.394531 13.617188 -8.351562 14.328125 -7.65625 C 15.035156 -6.96875 16.023438 -6.625 17.296875 -6.625 C 18.097656 -6.625 18.769531 -6.757812 19.3125 -7.03125 L 19.3125 0.109375 C 18.125 0.535156 16.800781 0.75 15.34375 0.75 Z M 15.34375 0.75 "/></g></g></g><g fill="#ffffff" fill-opacity="1"><g transform="translate(170.214283, 96.853653)"><g><path d="M 14.9375 -30.15625 C 18.738281 -30.15625 21.734375 -29.007812 23.921875 -26.71875 C 26.117188 -24.4375 27.21875 -21.390625 27.21875 -17.578125 L 27.21875 0 L 21.328125 0 L 20.0625 -2.890625 L 19.78125 -2.890625 C 17.46875 -0.460938 14.679688 0.75 11.421875 0.75 C 9.578125 0.75 7.894531 0.363281 6.375 -0.40625 C 4.851562 -1.175781 3.660156 -2.234375 2.796875 -3.578125 C 1.929688 -4.921875 1.5 -6.398438 1.5 -8.015625 C 1.5 -10.015625 2.09375 -11.753906 3.28125 -13.234375 C 4.476562 -14.710938 6.140625 -15.84375 8.265625 -16.625 C 10.398438 -17.414062 12.851562 -17.8125 15.625 -17.8125 L 19.375 -17.8125 L 19.375 -18.390625 C 19.375 -19.890625 18.96875 -21.0625 18.15625 -21.90625 C 17.351562 -22.75 16.257812 -23.171875 14.875 -23.171875 C 13.6875 -23.171875 12.734375 -22.851562 12.015625 -22.21875 C 11.304688 -21.59375 10.875 -20.914062 10.71875 -20.1875 L 2.890625 -20.1875 C 3.035156 -21.914062 3.578125 -23.535156 4.515625 -25.046875 C 5.460938 -26.566406 6.820312 -27.796875 8.59375 -28.734375 C 10.363281 -29.679688 12.476562 -30.15625 14.9375 -30.15625 Z M 13.265625 -5.65625 C 15.066406 -5.65625 16.535156 -6.191406 17.671875 -7.265625 C 18.804688 -8.335938 19.375 -9.601562 19.375 -11.0625 L 19.375 -12.5625 L 15.390625 -12.5625 C 13.273438 -12.5625 11.738281 -12.222656 10.78125 -11.546875 C 9.820312 -10.878906 9.34375 -9.953125 9.34375 -8.765625 C 9.34375 -7.835938 9.675781 -7.085938 10.34375 -6.515625 C 11.019531 -5.941406 11.992188 -5.65625 13.265625 -5.65625 Z M 13.265625 -5.65625 "/></g></g></g><g fill="#ffffff" fill-opacity="1"><g transform="translate(199.0934, 96.853653)"><g><path d="M 11.25 0 L 3.40625 0 L 3.40625 -29.40625 L 11.25 -29.40625 Z M 7.328125 -33.15625 C 6.097656 -33.15625 5.054688 -33.578125 4.203125 -34.421875 C 3.359375 -35.265625 2.9375 -36.300781 2.9375 -37.53125 C 2.9375 -38.757812 3.359375 -39.796875 4.203125 -40.640625 C 5.054688 -41.492188 6.097656 -41.921875 7.328125 -41.921875 C 8.554688 -41.921875 9.59375 -41.492188 10.4375 -40.640625 C 11.28125 -39.796875 11.703125 -38.757812 11.703125 -37.53125 C 11.703125 -36.300781 11.28125 -35.265625 10.4375 -34.421875 C 9.59375 -33.578125 8.554688 -33.15625 7.328125 -33.15625 Z M 7.328125 -33.15625 "/></g></g></g><g fill="#ffffff" fill-opacity="1"><g transform="translate(212.293394, 96.853653)"><g><path d="M 3.40625 0 L 3.40625 -29.40625 L 9.28125 -29.40625 L 10.546875 -26.515625 L 10.84375 -26.515625 C 11.457031 -27.285156 12.472656 -28.082031 13.890625 -28.90625 C 15.316406 -29.738281 16.972656 -30.15625 18.859375 -30.15625 C 21.203125 -30.15625 23.265625 -29.625 25.046875 -28.5625 C 26.835938 -27.507812 28.234375 -26.007812 29.234375 -24.0625 C 30.234375 -22.125 30.734375 -19.890625 30.734375 -17.359375 L 30.734375 0 L 22.890625 0 L 22.890625 -16.65625 C 22.890625 -18.382812 22.332031 -19.851562 21.21875 -21.0625 C 20.101562 -22.28125 18.71875 -22.890625 17.0625 -22.890625 C 15.375 -22.890625 13.984375 -22.289062 12.890625 -21.09375 C 11.796875 -19.90625 11.25 -18.425781 11.25 -16.65625 L 11.25 0 Z M 3.40625 0 "/></g></g></g><g fill="#ffffff" fill-opacity="1"><g transform="translate(244.688773, 96.853653)"><g><path d="M 15.34375 0.75 C 12.414062 0.75 10.03125 -0.207031 8.1875 -2.125 C 6.34375 -4.050781 5.421875 -6.664062 5.421875 -9.96875 L 5.421875 -22.421875 L 0.859375 -22.421875 L 0.859375 -28.828125 L 2.890625 -28.828125 C 4.003906 -28.828125 4.867188 -29.125 5.484375 -29.71875 C 6.097656 -30.3125 6.40625 -31.164062 6.40625 -32.28125 L 6.40625 -36.78125 L 13.265625 -36.78125 L 13.265625 -29.40625 L 19.3125 -29.40625 L 19.3125 -22.421875 L 13.265625 -22.421875 L 13.265625 -10.78125 C 13.265625 -9.394531 13.617188 -8.351562 14.328125 -7.65625 C 15.035156 -6.96875 16.023438 -6.625 17.296875 -6.625 C 18.097656 -6.625 18.769531 -6.757812 19.3125 -7.03125 L 19.3125 0.109375 C 18.125 0.535156 16.800781 0.75 15.34375 0.75 Z M 15.34375 0.75 "/></g></g></g><g fill="#ffffff" fill-opacity="1"><g transform="translate(264.575446, 96.853653)"><g><path d="M 21.796875 -29.40625 L 29.859375 -29.40625 L 18.109375 0.859375 C 16.722656 4.441406 15.238281 6.972656 13.65625 8.453125 C 12.082031 9.929688 10.222656 10.671875 8.078125 10.671875 C 6.804688 10.671875 5.570312 10.457031 4.375 10.03125 L 4.375 2.890625 C 4.914062 3.148438 5.628906 3.28125 6.515625 3.28125 C 7.742188 3.28125 8.734375 3.019531 9.484375 2.5 C 10.234375 1.988281 10.835938 1.078125 11.296875 -0.234375 L 11.46875 -0.8125 L 0 -29.40625 L 8.46875 -29.40625 L 15.34375 -10.265625 Z M 21.796875 -29.40625 "/></g></g></g><g clip-path="url(#a86a8f4fda)"><path fill="#ffffff" d="M 310.078125 44.492188 C 304.625 44.492188 300.191406 48.925781 300.191406 54.375 C 300.191406 56.28125 300.734375 58.132812 301.765625 59.730469 C 302.730469 61.222656 304.074219 62.425781 305.664062 63.21875 L 305.664062 63.902344 L 305.046875 63.902344 C 304.867188 63.902344 304.722656 64.046875 304.722656 64.226562 C 304.722656 64.40625 304.867188 64.550781 305.046875 64.550781 L 305.664062 64.550781 L 305.664062 70.472656 C 305.664062 70.652344 305.808594 70.796875 305.984375 70.796875 L 307.761719 70.796875 L 307.761719 72.050781 C 307.761719 72.230469 307.90625 72.375 308.085938 72.375 L 312.070312 72.375 C 312.246094 72.375 312.394531 72.230469 312.394531 72.050781 L 312.394531 70.796875 L 314.167969 70.796875 C 314.34375 70.796875 314.492188 70.652344 314.492188 70.472656 L 314.492188 68.726562 L 315.105469 68.726562 C 315.285156 68.726562 315.429688 68.578125 315.429688 68.402344 C 315.429688 68.222656 315.285156 68.078125 315.105469 68.078125 L 314.492188 68.078125 L 314.492188 66.699219 L 315.105469 66.699219 C 315.285156 66.699219 315.429688 66.550781 315.429688 66.375 C 315.429688 66.195312 315.285156 66.050781 315.105469 66.050781 L 314.492188 66.050781 L 314.492188 64.550781 L 315.105469 64.550781 C 315.285156 64.550781 315.429688 64.40625 315.429688 64.226562 C 315.429688 64.046875 315.285156 63.902344 315.105469 63.902344 L 314.492188 63.902344 L 314.492188 63.21875 C 316.078125 62.425781 317.421875 61.222656 318.386719 59.730469 C 319.417969 58.132812 319.960938 56.28125 319.960938 54.375 C 319.960938 48.925781 315.527344 44.492188 310.078125 44.492188 Z M 311.746094 71.726562 L 308.40625 71.726562 L 308.40625 70.796875 L 311.746094 70.796875 Z M 313.84375 66.050781 L 309.171875 66.050781 C 308.996094 66.050781 308.847656 66.195312 308.847656 66.375 C 308.847656 66.550781 308.996094 66.699219 309.171875 66.699219 L 313.84375 66.699219 L 313.84375 68.078125 L 309.171875 68.078125 C 308.996094 68.078125 308.847656 68.222656 308.847656 68.402344 C 308.847656 68.578125 308.996094 68.726562 309.171875 68.726562 L 313.84375 68.726562 L 313.84375 70.148438 L 312.070312 70.148438 C 312.066406 70.148438 312.066406 70.148438 312.066406 70.148438 L 308.085938 70.148438 C 308.082031 70.148438 308.082031 70.148438 308.082031 70.148438 L 306.308594 70.148438 L 306.308594 64.550781 L 313.84375 64.550781 Z M 309.761719 55.722656 C 309.761719 55.507812 309.9375 55.335938 310.148438 55.335938 C 310.363281 55.335938 310.535156 55.507812 310.535156 55.722656 C 310.535156 55.933594 310.363281 56.109375 310.148438 56.109375 C 309.9375 56.109375 309.761719 55.933594 309.761719 55.722656 Z M 314.027344 62.726562 C 314.023438 62.730469 314.015625 62.734375 314.011719 62.738281 C 314 62.742188 313.988281 62.75 313.980469 62.757812 C 313.972656 62.761719 313.964844 62.769531 313.957031 62.777344 C 313.949219 62.78125 313.941406 62.789062 313.933594 62.796875 C 313.925781 62.804688 313.917969 62.8125 313.910156 62.820312 C 313.90625 62.828125 313.898438 62.835938 313.894531 62.847656 C 313.886719 62.855469 313.882812 62.863281 313.878906 62.875 C 313.875 62.882812 313.871094 62.890625 313.867188 62.902344 C 313.863281 62.910156 313.859375 62.921875 313.855469 62.933594 C 313.855469 62.941406 313.851562 62.953125 313.847656 62.960938 C 313.847656 62.972656 313.847656 62.984375 313.84375 62.996094 C 313.84375 63.003906 313.84375 63.011719 313.84375 63.019531 L 313.84375 63.902344 L 310.472656 63.902344 L 310.472656 56.703125 C 310.882812 56.566406 311.183594 56.179688 311.183594 55.722656 C 311.183594 55.152344 310.71875 54.6875 310.148438 54.6875 C 309.578125 54.6875 309.117188 55.152344 309.117188 55.722656 C 309.117188 56.179688 309.414062 56.566406 309.824219 56.703125 L 309.824219 63.902344 L 306.308594 63.902344 L 306.308594 63.019531 C 306.308594 63.011719 306.308594 63.003906 306.308594 62.996094 C 306.304688 62.984375 306.304688 62.972656 306.304688 62.964844 C 306.300781 62.953125 306.296875 62.941406 306.296875 62.929688 C 306.292969 62.921875 306.289062 62.910156 306.289062 62.902344 C 306.28125 62.890625 306.277344 62.882812 306.273438 62.871094 C 306.269531 62.863281 306.265625 62.855469 306.257812 62.847656 C 306.253906 62.835938 306.246094 62.828125 306.238281 62.820312 C 306.234375 62.8125 306.226562 62.804688 306.222656 62.796875 C 306.214844 62.789062 306.203125 62.78125 306.195312 62.773438 C 306.1875 62.769531 306.183594 62.761719 306.175781 62.757812 C 306.164062 62.75 306.152344 62.742188 306.140625 62.738281 C 306.136719 62.734375 306.128906 62.730469 306.125 62.726562 C 302.914062 61.203125 300.839844 57.925781 300.839844 54.375 C 300.839844 49.28125 304.984375 45.136719 310.078125 45.136719 C 315.167969 45.136719 319.3125 49.28125 319.3125 54.375 C 319.3125 57.925781 317.238281 61.203125 314.027344 62.726562 Z M 314.027344 62.726562 " fill-opacity="1" fill-rule="nonzero"/></g><g clip-path="url(#ef391219b9)"><path fill="#ffffff" d="M 310.078125 42.84375 C 310.253906 42.84375 310.398438 42.695312 310.398438 42.519531 L 310.398438 41.011719 C 310.398438 40.832031 310.253906 40.6875 310.078125 40.6875 C 309.898438 40.6875 309.753906 40.832031 309.753906 41.011719 L 309.753906 42.519531 C 309.753906 42.695312 309.898438 42.84375 310.078125 42.84375 Z M 310.078125 42.84375 " fill-opacity="1" fill-rule="nonzero"/></g><path fill="#ffffff" d="M 303.960938 44.242188 C 304.023438 44.347656 304.128906 44.40625 304.242188 44.40625 C 304.296875 44.40625 304.351562 44.390625 304.402344 44.363281 C 304.558594 44.273438 304.613281 44.074219 304.523438 43.921875 L 303.769531 42.613281 C 303.679688 42.460938 303.480469 42.40625 303.328125 42.496094 C 303.171875 42.585938 303.117188 42.785156 303.207031 42.9375 Z M 303.960938 44.242188 " fill-opacity="1" fill-rule="nonzero"/><path fill="#ffffff" d="M 298.503906 47.878906 L 299.808594 48.632812 C 299.859375 48.664062 299.914062 48.675781 299.972656 48.675781 C 300.082031 48.675781 300.191406 48.617188 300.25 48.515625 C 300.339844 48.359375 300.289062 48.160156 300.132812 48.074219 L 298.828125 47.320312 C 298.671875 47.230469 298.476562 47.28125 298.386719 47.4375 C 298.296875 47.59375 298.347656 47.789062 298.503906 47.878906 Z M 298.503906 47.878906 " fill-opacity="1" fill-rule="nonzero"/><g clip-path="url(#9ec5014a76)"><path fill="#ffffff" d="M 298.730469 54.1875 C 298.730469 54.007812 298.585938 53.863281 298.40625 53.863281 L 296.898438 53.863281 C 296.722656 53.863281 296.578125 54.007812 296.578125 54.1875 C 296.578125 54.367188 296.722656 54.511719 296.898438 54.511719 L 298.40625 54.511719 C 298.585938 54.511719 298.730469 54.367188 298.730469 54.1875 Z M 298.730469 54.1875 " fill-opacity="1" fill-rule="nonzero"/></g><path fill="#ffffff" d="M 299.808594 59.742188 L 298.503906 60.496094 C 298.347656 60.585938 298.296875 60.78125 298.382812 60.9375 C 298.445312 61.039062 298.554688 61.097656 298.664062 61.097656 C 298.71875 61.097656 298.777344 61.085938 298.828125 61.054688 L 300.132812 60.300781 C 300.289062 60.210938 300.339844 60.015625 300.25 59.859375 C 300.160156 59.707031 299.964844 59.652344 299.808594 59.742188 Z M 299.808594 59.742188 " fill-opacity="1" fill-rule="nonzero"/><path fill="#ffffff" d="M 321.648438 60.496094 L 320.34375 59.742188 C 320.1875 59.652344 319.992188 59.707031 319.902344 59.859375 C 319.8125 60.015625 319.863281 60.214844 320.019531 60.300781 L 321.324219 61.054688 C 321.375 61.085938 321.433594 61.097656 321.488281 61.097656 C 321.597656 61.097656 321.707031 61.042969 321.765625 60.9375 C 321.855469 60.78125 321.804688 60.585938 321.648438 60.496094 Z M 321.648438 60.496094 " fill-opacity="1" fill-rule="nonzero"/><g clip-path="url(#1b9b6b6135)"><path fill="#ffffff" d="M 323.253906 53.863281 L 321.746094 53.863281 C 321.566406 53.863281 321.421875 54.007812 321.421875 54.1875 C 321.421875 54.367188 321.566406 54.511719 321.746094 54.511719 L 323.253906 54.511719 C 323.429688 54.511719 323.574219 54.367188 323.574219 54.1875 C 323.574219 54.007812 323.429688 53.863281 323.253906 53.863281 Z M 323.253906 53.863281 " fill-opacity="1" fill-rule="nonzero"/></g><path fill="#ffffff" d="M 320.183594 48.675781 C 320.238281 48.675781 320.292969 48.664062 320.34375 48.632812 L 321.648438 47.878906 C 321.804688 47.789062 321.855469 47.59375 321.765625 47.4375 C 321.679688 47.28125 321.480469 47.230469 321.324219 47.320312 L 320.019531 48.074219 C 319.863281 48.160156 319.8125 48.359375 319.902344 48.515625 C 319.960938 48.617188 320.070312 48.675781 320.183594 48.675781 Z M 320.183594 48.675781 " fill-opacity="1" fill-rule="nonzero"/><path fill="#ffffff" d="M 315.75 44.363281 C 315.800781 44.390625 315.855469 44.40625 315.910156 44.40625 C 316.023438 44.40625 316.132812 44.347656 316.191406 44.242188 L 316.945312 42.9375 C 317.035156 42.785156 316.980469 42.585938 316.828125 42.496094 C 316.671875 42.40625 316.472656 42.460938 316.382812 42.613281 L 315.628906 43.917969 C 315.542969 44.074219 315.59375 44.273438 315.75 44.363281 Z M 315.75 44.363281 " fill-opacity="1" fill-rule="nonzero"/><path fill="#ffffff" d="M 316.769531 51.199219 C 316.199219 51.199219 315.734375 51.664062 315.734375 52.234375 C 315.734375 52.6875 316.035156 53.078125 316.445312 53.214844 L 316.445312 54.914062 L 314.375 56.980469 C 314.371094 56.988281 314.367188 56.992188 314.363281 57 C 314.355469 57.007812 314.34375 57.019531 314.335938 57.03125 C 314.328125 57.042969 314.324219 57.054688 314.316406 57.066406 C 314.3125 57.074219 314.308594 57.078125 314.308594 57.085938 C 314.300781 57.101562 314.296875 57.117188 314.292969 57.132812 C 314.292969 57.136719 314.289062 57.140625 314.289062 57.144531 C 314.285156 57.167969 314.28125 57.191406 314.28125 57.210938 L 314.28125 59.769531 L 312.832031 60.414062 L 312.832031 56.136719 L 313.746094 55.222656 C 313.761719 55.207031 313.773438 55.191406 313.785156 55.175781 C 313.789062 55.167969 313.792969 55.160156 313.796875 55.15625 C 313.804688 55.144531 313.8125 55.132812 313.816406 55.117188 C 313.820312 55.109375 313.820312 55.101562 313.824219 55.09375 C 313.828125 55.082031 313.832031 55.070312 313.835938 55.058594 C 313.835938 55.046875 313.835938 55.03125 313.839844 55.019531 C 313.839844 55.011719 313.839844 55.003906 313.839844 54.996094 L 313.839844 54.527344 C 314.253906 54.390625 314.550781 54.003906 314.550781 53.546875 C 314.550781 52.976562 314.085938 52.515625 313.515625 52.515625 C 312.945312 52.515625 312.484375 52.976562 312.484375 53.546875 C 312.484375 54.003906 312.78125 54.390625 313.191406 54.527344 L 313.191406 54.859375 L 312.277344 55.773438 C 312.265625 55.789062 312.25 55.808594 312.238281 55.824219 C 312.234375 55.832031 312.230469 55.839844 312.226562 55.847656 C 312.21875 55.859375 312.214844 55.867188 312.207031 55.878906 C 312.203125 55.890625 312.203125 55.902344 312.199219 55.914062 C 312.195312 55.921875 312.191406 55.929688 312.191406 55.941406 C 312.1875 55.960938 312.183594 55.984375 312.183594 56.003906 L 312.183594 60.910156 C 312.183594 61.019531 312.238281 61.121094 312.332031 61.183594 C 312.382812 61.21875 312.445312 61.234375 312.507812 61.234375 C 312.550781 61.234375 312.597656 61.226562 312.640625 61.207031 L 314.738281 60.273438 C 314.855469 60.222656 314.929688 60.105469 314.929688 59.980469 L 314.929688 57.34375 L 316.996094 55.277344 C 317.007812 55.265625 317.015625 55.253906 317.023438 55.242188 C 317.027344 55.238281 317.035156 55.234375 317.035156 55.226562 C 317.046875 55.214844 317.050781 55.199219 317.058594 55.1875 C 317.0625 55.179688 317.066406 55.175781 317.066406 55.171875 C 317.074219 55.15625 317.078125 55.140625 317.082031 55.121094 C 317.082031 55.117188 317.085938 55.113281 317.085938 55.113281 C 317.089844 55.089844 317.09375 55.066406 317.09375 55.046875 L 317.09375 53.214844 C 317.503906 53.078125 317.800781 52.6875 317.800781 52.234375 C 317.800781 51.664062 317.339844 51.199219 316.769531 51.199219 Z M 313.132812 53.546875 C 313.132812 53.335938 313.304688 53.160156 313.515625 53.160156 C 313.730469 53.160156 313.902344 53.335938 313.902344 53.546875 C 313.902344 53.761719 313.730469 53.933594 313.515625 53.933594 C 313.304688 53.933594 313.132812 53.761719 313.132812 53.546875 Z M 316.769531 52.617188 C 316.554688 52.617188 316.382812 52.445312 316.382812 52.234375 C 316.382812 52.019531 316.554688 51.847656 316.769531 51.847656 C 316.980469 51.847656 317.15625 52.019531 317.15625 52.234375 C 317.15625 52.445312 316.980469 52.617188 316.769531 52.617188 Z M 316.769531 52.617188 " fill-opacity="1" fill-rule="nonzero"/><path fill="#ffffff" d="M 308.101562 55.917969 C 308.097656 55.90625 308.09375 55.890625 308.089844 55.878906 C 308.085938 55.871094 308.082031 55.863281 308.074219 55.851562 C 308.070312 55.84375 308.066406 55.832031 308.058594 55.824219 C 308.050781 55.808594 308.039062 55.796875 308.027344 55.78125 C 308.023438 55.78125 308.023438 55.777344 308.019531 55.773438 L 307.105469 54.859375 L 307.105469 54.527344 C 307.515625 54.390625 307.816406 54.003906 307.816406 53.546875 C 307.816406 52.976562 307.351562 52.515625 306.78125 52.515625 C 306.210938 52.515625 305.75 52.976562 305.75 53.546875 C 305.75 54.003906 306.046875 54.390625 306.457031 54.527344 L 306.457031 54.996094 C 306.457031 55 306.460938 55.003906 306.460938 55.003906 C 306.460938 55.023438 306.460938 55.039062 306.464844 55.058594 C 306.464844 55.070312 306.46875 55.078125 306.472656 55.089844 C 306.476562 55.097656 306.480469 55.109375 306.484375 55.117188 C 306.488281 55.128906 306.492188 55.140625 306.5 55.152344 C 306.503906 55.160156 306.507812 55.167969 306.511719 55.175781 C 306.523438 55.191406 306.539062 55.207031 306.554688 55.222656 L 307.46875 56.136719 L 307.46875 60.414062 L 306.015625 59.769531 L 306.015625 57.210938 C 306.015625 57.191406 306.015625 57.167969 306.011719 57.144531 C 306.007812 57.140625 306.007812 57.136719 306.007812 57.132812 C 306.003906 57.117188 306 57.101562 305.992188 57.085938 C 305.988281 57.078125 305.984375 57.074219 305.980469 57.066406 C 305.976562 57.054688 305.96875 57.042969 305.960938 57.03125 C 305.957031 57.019531 305.945312 57.011719 305.941406 57.003906 C 305.933594 56.996094 305.929688 56.988281 305.921875 56.980469 L 303.855469 54.914062 L 303.855469 53.214844 C 304.265625 53.078125 304.5625 52.6875 304.5625 52.234375 C 304.5625 51.664062 304.101562 51.199219 303.53125 51.199219 C 302.960938 51.199219 302.496094 51.664062 302.496094 52.234375 C 302.496094 52.6875 302.796875 53.078125 303.207031 53.214844 L 303.207031 55.046875 C 303.207031 55.066406 303.207031 55.089844 303.214844 55.109375 C 303.214844 55.117188 303.21875 55.125 303.21875 55.128906 C 303.222656 55.144531 303.226562 55.15625 303.230469 55.171875 C 303.234375 55.179688 303.238281 55.183594 303.242188 55.191406 C 303.25 55.203125 303.253906 55.214844 303.261719 55.226562 C 303.269531 55.238281 303.277344 55.246094 303.28125 55.253906 C 303.289062 55.261719 303.292969 55.269531 303.300781 55.277344 L 305.371094 57.34375 L 305.371094 59.980469 C 305.371094 60.105469 305.445312 60.222656 305.5625 60.273438 L 307.660156 61.207031 C 307.703125 61.226562 307.746094 61.234375 307.789062 61.234375 C 307.851562 61.234375 307.914062 61.21875 307.96875 61.183594 C 308.058594 61.121094 308.113281 61.019531 308.113281 60.910156 L 308.113281 56.003906 C 308.113281 55.984375 308.113281 55.960938 308.109375 55.941406 C 308.105469 55.933594 308.101562 55.925781 308.101562 55.917969 Z M 306.78125 53.933594 C 306.570312 53.933594 306.394531 53.761719 306.394531 53.546875 C 306.394531 53.335938 306.570312 53.160156 306.78125 53.160156 C 306.996094 53.160156 307.167969 53.335938 307.167969 53.546875 C 307.167969 53.761719 306.996094 53.933594 306.78125 53.933594 Z M 303.53125 52.617188 C 303.316406 52.617188 303.144531 52.445312 303.144531 52.234375 C 303.144531 52.019531 303.316406 51.847656 303.53125 51.847656 C 303.742188 51.847656 303.914062 52.019531 303.914062 52.234375 C 303.914062 52.445312 303.742188 52.617188 303.53125 52.617188 Z M 303.53125 52.617188 " fill-opacity="1" fill-rule="nonzero"/><g fill="#d9d9d9" fill-opacity="1"><g transform="translate(115.107112, 116.460442)"><g><path d="M -0.21875 -0.59375 C 0.101562 -0.59375 0.375 -0.617188 0.59375 -0.671875 C 0.8125 -0.722656 0.988281 -0.816406 1.125 -0.953125 C 1.269531 -1.085938 1.394531 -1.265625 1.5 -1.484375 C 1.601562 -1.710938 1.695312 -2.007812 1.78125 -2.375 L 3.53125 -8.984375 C 3.59375 -9.242188 3.640625 -9.46875 3.671875 -9.65625 C 3.710938 -9.84375 3.734375 -10.007812 3.734375 -10.15625 C 3.734375 -10.488281 3.617188 -10.703125 3.390625 -10.796875 C 3.160156 -10.898438 2.773438 -10.953125 2.234375 -10.953125 L 2.40625 -11.546875 L 10.59375 -11.546875 L 10.59375 -8.515625 L 10.015625 -8.515625 C 9.890625 -8.992188 9.742188 -9.382812 9.578125 -9.6875 C 9.421875 -10 9.238281 -10.242188 9.03125 -10.421875 C 8.832031 -10.597656 8.601562 -10.71875 8.34375 -10.78125 C 8.09375 -10.851562 7.8125 -10.890625 7.5 -10.890625 L 5.546875 -10.890625 L 4.375 -6.4375 L 5.328125 -6.4375 C 5.597656 -6.4375 5.828125 -6.457031 6.015625 -6.5 C 6.203125 -6.550781 6.375 -6.640625 6.53125 -6.765625 C 6.6875 -6.890625 6.832031 -7.0625 6.96875 -7.28125 C 7.101562 -7.507812 7.25 -7.796875 7.40625 -8.140625 L 7.96875 -8.140625 L 7.0625 -3.703125 L 6.46875 -3.703125 C 6.5 -4.003906 6.515625 -4.265625 6.515625 -4.484375 C 6.515625 -4.929688 6.425781 -5.257812 6.25 -5.46875 C 6.082031 -5.675781 5.769531 -5.78125 5.3125 -5.78125 L 4.1875 -5.78125 L 3.328125 -2.546875 C 3.234375 -2.222656 3.1875 -1.941406 3.1875 -1.703125 C 3.1875 -1.347656 3.347656 -1.082031 3.671875 -0.90625 C 3.992188 -0.726562 4.546875 -0.640625 5.328125 -0.640625 C 5.898438 -0.640625 6.394531 -0.6875 6.8125 -0.78125 C 7.238281 -0.875 7.609375 -1.015625 7.921875 -1.203125 C 8.242188 -1.398438 8.519531 -1.65625 8.75 -1.96875 C 8.988281 -2.289062 9.210938 -2.691406 9.421875 -3.171875 L 10.125 -3.171875 L 8.953125 0 L -0.390625 0 Z M -0.21875 -0.59375 "/></g></g></g><g fill="#d9d9d9" fill-opacity="1"><g transform="translate(126.207102, 116.460442)"><g><path d="M 6.921875 -5.359375 C 6.921875 -5.554688 6.898438 -5.738281 6.859375 -5.90625 C 6.828125 -6.070312 6.785156 -6.226562 6.734375 -6.375 C 6.691406 -6.519531 6.648438 -6.660156 6.609375 -6.796875 C 6.578125 -6.941406 6.5625 -7.09375 6.5625 -7.25 C 6.5625 -7.8125 6.820312 -8.09375 7.34375 -8.09375 C 7.65625 -8.09375 7.878906 -7.984375 8.015625 -7.765625 C 8.148438 -7.546875 8.21875 -7.179688 8.21875 -6.671875 C 8.21875 -6.140625 8.148438 -5.601562 8.015625 -5.0625 C 7.890625 -4.519531 7.710938 -3.992188 7.484375 -3.484375 C 7.253906 -2.984375 6.984375 -2.507812 6.671875 -2.0625 C 6.359375 -1.625 6.023438 -1.238281 5.671875 -0.90625 C 5.328125 -0.582031 4.96875 -0.320312 4.59375 -0.125 C 4.21875 0.0625 3.847656 0.15625 3.484375 0.15625 C 3.210938 0.15625 2.957031 0.101562 2.71875 0 C 2.488281 -0.113281 2.285156 -0.265625 2.109375 -0.453125 C 1.941406 -0.640625 1.8125 -0.863281 1.71875 -1.125 C 1.625 -1.382812 1.578125 -1.664062 1.578125 -1.96875 C 1.578125 -2.53125 1.726562 -3.195312 2.03125 -3.96875 C 2.34375 -4.738281 2.785156 -5.535156 3.359375 -6.359375 L 3.328125 -6.40625 C 3.054688 -6.40625 2.832031 -6.441406 2.65625 -6.515625 C 2.476562 -6.597656 2.328125 -6.6875 2.203125 -6.78125 C 2.078125 -6.882812 1.960938 -6.976562 1.859375 -7.0625 C 1.765625 -7.144531 1.671875 -7.1875 1.578125 -7.1875 C 1.398438 -7.1875 1.3125 -7.101562 1.3125 -6.9375 C 1.3125 -6.84375 1.335938 -6.757812 1.390625 -6.6875 C 1.453125 -6.613281 1.515625 -6.539062 1.578125 -6.46875 C 1.648438 -6.40625 1.710938 -6.332031 1.765625 -6.25 C 1.816406 -6.164062 1.84375 -6.0625 1.84375 -5.9375 C 1.84375 -5.757812 1.769531 -5.613281 1.625 -5.5 C 1.488281 -5.382812 1.3125 -5.328125 1.09375 -5.328125 C 0.832031 -5.328125 0.628906 -5.40625 0.484375 -5.5625 C 0.347656 -5.726562 0.28125 -5.953125 0.28125 -6.234375 C 0.28125 -6.484375 0.328125 -6.722656 0.421875 -6.953125 C 0.523438 -7.179688 0.660156 -7.378906 0.828125 -7.546875 C 1.003906 -7.710938 1.203125 -7.84375 1.421875 -7.9375 C 1.648438 -8.039062 1.890625 -8.09375 2.140625 -8.09375 C 2.335938 -8.09375 2.503906 -8.0625 2.640625 -8 C 2.785156 -7.9375 2.914062 -7.863281 3.03125 -7.78125 C 3.15625 -7.695312 3.273438 -7.617188 3.390625 -7.546875 C 3.503906 -7.484375 3.644531 -7.453125 3.8125 -7.453125 C 4 -7.453125 4.164062 -7.53125 4.3125 -7.6875 C 4.53125 -7.875 4.675781 -7.988281 4.75 -8.03125 C 4.820312 -8.070312 4.921875 -8.09375 5.046875 -8.09375 C 5.242188 -8.09375 5.34375 -8.007812 5.34375 -7.84375 C 5.34375 -7.800781 5.335938 -7.765625 5.328125 -7.734375 C 5.316406 -7.703125 5.289062 -7.65625 5.25 -7.59375 C 5.21875 -7.539062 5.160156 -7.460938 5.078125 -7.359375 C 4.992188 -7.265625 4.875 -7.125 4.71875 -6.9375 C 4.488281 -6.664062 4.28125 -6.351562 4.09375 -6 C 3.90625 -5.644531 3.738281 -5.273438 3.59375 -4.890625 C 3.457031 -4.515625 3.347656 -4.132812 3.265625 -3.75 C 3.191406 -3.375 3.15625 -3.015625 3.15625 -2.671875 C 3.15625 -2.128906 3.242188 -1.695312 3.421875 -1.375 C 3.609375 -1.050781 3.847656 -0.890625 4.140625 -0.890625 C 4.421875 -0.890625 4.71875 -1.035156 5.03125 -1.328125 C 5.351562 -1.628906 5.65625 -2.003906 5.9375 -2.453125 C 6.21875 -2.898438 6.453125 -3.382812 6.640625 -3.90625 C 6.828125 -4.425781 6.921875 -4.910156 6.921875 -5.359375 Z M 6.921875 -5.359375 "/></g></g></g><g fill="#d9d9d9" fill-opacity="1"><g transform="translate(134.877088, 116.460442)"><g><path d="M 4.984375 -7.3125 C 4.597656 -7.3125 4.203125 -7.132812 3.796875 -6.78125 C 3.390625 -6.4375 3.019531 -6 2.6875 -5.46875 C 2.363281 -4.945312 2.097656 -4.382812 1.890625 -3.78125 C 1.679688 -3.175781 1.578125 -2.613281 1.578125 -2.09375 C 1.578125 -1.738281 1.648438 -1.453125 1.796875 -1.234375 C 1.953125 -1.023438 2.160156 -0.921875 2.421875 -0.921875 C 2.648438 -0.921875 2.890625 -1.007812 3.140625 -1.1875 C 3.390625 -1.375 3.628906 -1.617188 3.859375 -1.921875 C 4.097656 -2.234375 4.320312 -2.582031 4.53125 -2.96875 C 4.738281 -3.363281 4.921875 -3.765625 5.078125 -4.171875 C 5.242188 -4.585938 5.367188 -4.992188 5.453125 -5.390625 C 5.546875 -5.796875 5.59375 -6.160156 5.59375 -6.484375 C 5.59375 -6.742188 5.535156 -6.945312 5.421875 -7.09375 C 5.316406 -7.238281 5.171875 -7.3125 4.984375 -7.3125 Z M 6.53125 -7.953125 L 7.765625 -7.953125 L 6.921875 -5.65625 C 6.773438 -5.269531 6.632812 -4.863281 6.5 -4.4375 C 6.363281 -4.007812 6.242188 -3.59375 6.140625 -3.1875 C 6.035156 -2.789062 5.953125 -2.425781 5.890625 -2.09375 C 5.835938 -1.769531 5.8125 -1.523438 5.8125 -1.359375 C 5.8125 -1.078125 5.90625 -0.9375 6.09375 -0.9375 C 6.226562 -0.9375 6.425781 -1.078125 6.6875 -1.359375 C 6.957031 -1.648438 7.257812 -2.023438 7.59375 -2.484375 L 7.984375 -2.171875 C 7.554688 -1.429688 7.097656 -0.859375 6.609375 -0.453125 C 6.128906 -0.046875 5.664062 0.15625 5.21875 0.15625 C 4.988281 0.15625 4.8125 0.0664062 4.6875 -0.109375 C 4.5625 -0.285156 4.5 -0.570312 4.5 -0.96875 C 4.5 -1.0625 4.5 -1.164062 4.5 -1.28125 C 4.507812 -1.40625 4.523438 -1.566406 4.546875 -1.765625 L 4.484375 -1.78125 C 4.335938 -1.5 4.160156 -1.238281 3.953125 -1 C 3.742188 -0.769531 3.519531 -0.566406 3.28125 -0.390625 C 3.039062 -0.222656 2.789062 -0.09375 2.53125 0 C 2.269531 0.101562 2.015625 0.15625 1.765625 0.15625 C 1.253906 0.15625 0.859375 -0.0351562 0.578125 -0.421875 C 0.296875 -0.804688 0.15625 -1.34375 0.15625 -2.03125 C 0.15625 -2.71875 0.296875 -3.421875 0.578125 -4.140625 C 0.867188 -4.859375 1.242188 -5.507812 1.703125 -6.09375 C 2.171875 -6.675781 2.679688 -7.15625 3.234375 -7.53125 C 3.796875 -7.90625 4.347656 -8.09375 4.890625 -8.09375 C 5.222656 -8.09375 5.492188 -8.015625 5.703125 -7.859375 C 5.910156 -7.710938 6.078125 -7.460938 6.203125 -7.109375 Z M 6.53125 -7.953125 "/></g></g></g><g fill="#d9d9d9" fill-opacity="1"><g transform="translate(143.427083, 116.460442)"><g><path d="M 2.75 -10.359375 C 2.789062 -10.546875 2.835938 -10.726562 2.890625 -10.90625 C 2.941406 -11.09375 2.96875 -11.234375 2.96875 -11.328125 C 2.96875 -11.671875 2.585938 -11.84375 1.828125 -11.84375 L 1.953125 -12.296875 L 4.6875 -12.4375 L 2.015625 -2.578125 C 1.929688 -2.304688 1.867188 -2.066406 1.828125 -1.859375 C 1.785156 -1.660156 1.765625 -1.488281 1.765625 -1.34375 C 1.765625 -1.257812 1.789062 -1.179688 1.84375 -1.109375 C 1.894531 -1.035156 1.972656 -1 2.078125 -1 C 2.242188 -1 2.414062 -1.066406 2.59375 -1.203125 C 2.769531 -1.335938 2.941406 -1.5 3.109375 -1.6875 C 3.273438 -1.875 3.421875 -2.0625 3.546875 -2.25 C 3.679688 -2.445312 3.78125 -2.601562 3.84375 -2.71875 L 4.296875 -2.453125 C 4.140625 -2.117188 3.941406 -1.789062 3.703125 -1.46875 C 3.460938 -1.15625 3.207031 -0.878906 2.9375 -0.640625 C 2.664062 -0.398438 2.390625 -0.207031 2.109375 -0.0625 C 1.835938 0.0820312 1.585938 0.15625 1.359375 0.15625 C 1.015625 0.15625 0.757812 0.0820312 0.59375 -0.0625 C 0.425781 -0.21875 0.34375 -0.472656 0.34375 -0.828125 C 0.34375 -1.023438 0.375 -1.289062 0.4375 -1.625 C 0.5 -1.96875 0.601562 -2.4375 0.75 -3.03125 Z M 2.75 -10.359375 "/></g></g></g><g fill="#d9d9d9" fill-opacity="1"><g transform="translate(148.122079, 116.460442)"><g><path d="M 2.53125 -0.9375 C 2.695312 -0.9375 2.910156 -1.046875 3.171875 -1.265625 C 3.429688 -1.492188 3.703125 -1.796875 3.984375 -2.171875 C 4.273438 -2.546875 4.554688 -2.972656 4.828125 -3.453125 C 5.109375 -3.929688 5.34375 -4.429688 5.53125 -4.953125 L 6.640625 -7.953125 L 8.046875 -7.953125 L 6.9375 -4.515625 C 6.769531 -4.015625 6.628906 -3.585938 6.515625 -3.234375 C 6.410156 -2.878906 6.320312 -2.578125 6.25 -2.328125 C 6.1875 -2.085938 6.140625 -1.890625 6.109375 -1.734375 C 6.078125 -1.578125 6.0625 -1.453125 6.0625 -1.359375 C 6.0625 -1.097656 6.148438 -0.96875 6.328125 -0.96875 C 6.429688 -0.96875 6.550781 -1.015625 6.6875 -1.109375 C 6.832031 -1.210938 6.972656 -1.34375 7.109375 -1.5 C 7.253906 -1.664062 7.394531 -1.851562 7.53125 -2.0625 C 7.664062 -2.269531 7.785156 -2.488281 7.890625 -2.71875 L 8.34375 -2.484375 C 8.207031 -2.160156 8.035156 -1.835938 7.828125 -1.515625 C 7.617188 -1.203125 7.390625 -0.921875 7.140625 -0.671875 C 6.898438 -0.421875 6.644531 -0.21875 6.375 -0.0625 C 6.101562 0.0820312 5.835938 0.15625 5.578125 0.15625 C 5.265625 0.15625 5.050781 0.046875 4.9375 -0.171875 C 4.832031 -0.398438 4.78125 -0.71875 4.78125 -1.125 C 4.78125 -1.289062 4.785156 -1.472656 4.796875 -1.671875 C 4.816406 -1.867188 4.847656 -2.0625 4.890625 -2.25 L 4.84375 -2.296875 C 4.570312 -1.816406 4.304688 -1.421875 4.046875 -1.109375 C 3.796875 -0.796875 3.550781 -0.546875 3.3125 -0.359375 C 3.070312 -0.171875 2.835938 -0.0390625 2.609375 0.03125 C 2.378906 0.113281 2.15625 0.15625 1.9375 0.15625 C 1.46875 0.15625 1.140625 0.0234375 0.953125 -0.234375 C 0.765625 -0.492188 0.671875 -0.816406 0.671875 -1.203125 C 0.671875 -1.617188 0.75 -2.078125 0.90625 -2.578125 C 1.070312 -3.085938 1.242188 -3.566406 1.421875 -4.015625 C 1.597656 -4.460938 1.75 -4.84375 1.875 -5.15625 C 2 -5.46875 2.097656 -5.726562 2.171875 -5.9375 C 2.253906 -6.144531 2.3125 -6.3125 2.34375 -6.4375 C 2.382812 -6.570312 2.40625 -6.679688 2.40625 -6.765625 C 2.40625 -6.804688 2.394531 -6.84375 2.375 -6.875 C 2.363281 -6.914062 2.328125 -6.9375 2.265625 -6.9375 C 2.128906 -6.9375 1.9375 -6.816406 1.6875 -6.578125 C 1.445312 -6.347656 1.117188 -5.976562 0.703125 -5.46875 L 0.3125 -5.6875 C 0.46875 -5.976562 0.660156 -6.265625 0.890625 -6.546875 C 1.117188 -6.835938 1.363281 -7.097656 1.625 -7.328125 C 1.882812 -7.566406 2.148438 -7.753906 2.421875 -7.890625 C 2.703125 -8.023438 2.960938 -8.09375 3.203125 -8.09375 C 3.703125 -8.09375 3.953125 -7.804688 3.953125 -7.234375 C 3.953125 -6.878906 3.851562 -6.425781 3.65625 -5.875 C 3.46875 -5.320312 3.21875 -4.660156 2.90625 -3.890625 C 2.707031 -3.398438 2.539062 -2.957031 2.40625 -2.5625 C 2.28125 -2.175781 2.21875 -1.820312 2.21875 -1.5 C 2.21875 -1.289062 2.25 -1.144531 2.3125 -1.0625 C 2.375 -0.976562 2.445312 -0.9375 2.53125 -0.9375 Z M 2.53125 -0.9375 "/></g></g></g><g fill="#d9d9d9" fill-opacity="1"><g transform="translate(157.017067, 116.460442)"><g><path d="M 4.984375 -7.3125 C 4.597656 -7.3125 4.203125 -7.132812 3.796875 -6.78125 C 3.390625 -6.4375 3.019531 -6 2.6875 -5.46875 C 2.363281 -4.945312 2.097656 -4.382812 1.890625 -3.78125 C 1.679688 -3.175781 1.578125 -2.613281 1.578125 -2.09375 C 1.578125 -1.738281 1.648438 -1.453125 1.796875 -1.234375 C 1.953125 -1.023438 2.160156 -0.921875 2.421875 -0.921875 C 2.648438 -0.921875 2.890625 -1.007812 3.140625 -1.1875 C 3.390625 -1.375 3.628906 -1.617188 3.859375 -1.921875 C 4.097656 -2.234375 4.320312 -2.582031 4.53125 -2.96875 C 4.738281 -3.363281 4.921875 -3.765625 5.078125 -4.171875 C 5.242188 -4.585938 5.367188 -4.992188 5.453125 -5.390625 C 5.546875 -5.796875 5.59375 -6.160156 5.59375 -6.484375 C 5.59375 -6.742188 5.535156 -6.945312 5.421875 -7.09375 C 5.316406 -7.238281 5.171875 -7.3125 4.984375 -7.3125 Z M 6.53125 -7.953125 L 7.765625 -7.953125 L 6.921875 -5.65625 C 6.773438 -5.269531 6.632812 -4.863281 6.5 -4.4375 C 6.363281 -4.007812 6.242188 -3.59375 6.140625 -3.1875 C 6.035156 -2.789062 5.953125 -2.425781 5.890625 -2.09375 C 5.835938 -1.769531 5.8125 -1.523438 5.8125 -1.359375 C 5.8125 -1.078125 5.90625 -0.9375 6.09375 -0.9375 C 6.226562 -0.9375 6.425781 -1.078125 6.6875 -1.359375 C 6.957031 -1.648438 7.257812 -2.023438 7.59375 -2.484375 L 7.984375 -2.171875 C 7.554688 -1.429688 7.097656 -0.859375 6.609375 -0.453125 C 6.128906 -0.046875 5.664062 0.15625 5.21875 0.15625 C 4.988281 0.15625 4.8125 0.0664062 4.6875 -0.109375 C 4.5625 -0.285156 4.5 -0.570312 4.5 -0.96875 C 4.5 -1.0625 4.5 -1.164062 4.5 -1.28125 C 4.507812 -1.40625 4.523438 -1.566406 4.546875 -1.765625 L 4.484375 -1.78125 C 4.335938 -1.5 4.160156 -1.238281 3.953125 -1 C 3.742188 -0.769531 3.519531 -0.566406 3.28125 -0.390625 C 3.039062 -0.222656 2.789062 -0.09375 2.53125 0 C 2.269531 0.101562 2.015625 0.15625 1.765625 0.15625 C 1.253906 0.15625 0.859375 -0.0351562 0.578125 -0.421875 C 0.296875 -0.804688 0.15625 -1.34375 0.15625 -2.03125 C 0.15625 -2.71875 0.296875 -3.421875 0.578125 -4.140625 C 0.867188 -4.859375 1.242188 -5.507812 1.703125 -6.09375 C 2.171875 -6.675781 2.679688 -7.15625 3.234375 -7.53125 C 3.796875 -7.90625 4.347656 -8.09375 4.890625 -8.09375 C 5.222656 -8.09375 5.492188 -8.015625 5.703125 -7.859375 C 5.910156 -7.710938 6.078125 -7.460938 6.203125 -7.109375 Z M 6.53125 -7.953125 "/></g></g></g><g fill="#d9d9d9" fill-opacity="1"><g transform="translate(165.567062, 116.460442)"><g><path d="M 3.53125 -6.703125 L 2.28125 -2.578125 C 2.113281 -2.035156 2.023438 -1.625 2.015625 -1.34375 C 2.015625 -1.257812 2.035156 -1.179688 2.078125 -1.109375 C 2.117188 -1.035156 2.195312 -1 2.3125 -1 C 2.488281 -1 2.675781 -1.066406 2.875 -1.203125 C 3.082031 -1.335938 3.273438 -1.5 3.453125 -1.6875 C 3.640625 -1.875 3.804688 -2.0625 3.953125 -2.25 C 4.097656 -2.445312 4.207031 -2.601562 4.28125 -2.71875 L 4.703125 -2.453125 C 4.535156 -2.117188 4.320312 -1.789062 4.0625 -1.46875 C 3.800781 -1.15625 3.523438 -0.878906 3.234375 -0.640625 C 2.953125 -0.398438 2.660156 -0.207031 2.359375 -0.0625 C 2.066406 0.0820312 1.800781 0.15625 1.5625 0.15625 C 1.207031 0.15625 0.953125 0.0820312 0.796875 -0.0625 C 0.640625 -0.21875 0.5625 -0.472656 0.5625 -0.828125 C 0.5625 -1.023438 0.597656 -1.289062 0.671875 -1.625 C 0.742188 -1.96875 0.863281 -2.4375 1.03125 -3.03125 L 2.140625 -6.703125 L 0.859375 -6.703125 L 1.046875 -7.390625 L 2.359375 -7.390625 L 3.140625 -9.96875 L 4.515625 -9.96875 L 3.734375 -7.390625 L 5.375 -7.390625 L 5.15625 -6.703125 Z M 3.53125 -6.703125 "/></g></g></g><g fill="#d9d9d9" fill-opacity="1"><g transform="translate(171.042053, 116.460442)"><g><path d="M 1.96875 -4.953125 C 2.101562 -5.335938 2.203125 -5.648438 2.265625 -5.890625 C 2.328125 -6.128906 2.359375 -6.320312 2.359375 -6.46875 C 2.359375 -6.601562 2.332031 -6.691406 2.28125 -6.734375 C 2.238281 -6.785156 2.191406 -6.8125 2.140625 -6.8125 C 2.035156 -6.8125 1.914062 -6.757812 1.78125 -6.65625 C 1.65625 -6.550781 1.523438 -6.425781 1.390625 -6.28125 C 1.265625 -6.144531 1.148438 -6.003906 1.046875 -5.859375 C 0.953125 -5.722656 0.882812 -5.613281 0.84375 -5.53125 L 0.40625 -5.8125 C 0.519531 -6.03125 0.6875 -6.269531 0.90625 -6.53125 C 1.125 -6.800781 1.367188 -7.050781 1.640625 -7.28125 C 1.910156 -7.519531 2.1875 -7.710938 2.46875 -7.859375 C 2.757812 -8.015625 3.035156 -8.09375 3.296875 -8.09375 C 3.546875 -8.09375 3.734375 -8.019531 3.859375 -7.875 C 3.984375 -7.738281 4.046875 -7.476562 4.046875 -7.09375 C 4.046875 -6.800781 3.957031 -6.410156 3.78125 -5.921875 C 3.613281 -5.429688 3.390625 -4.800781 3.109375 -4.03125 L 2.546875 -2.515625 C 2.523438 -2.460938 2.5 -2.382812 2.46875 -2.28125 C 2.4375 -2.175781 2.398438 -2.066406 2.359375 -1.953125 C 2.328125 -1.835938 2.296875 -1.722656 2.265625 -1.609375 C 2.242188 -1.503906 2.234375 -1.414062 2.234375 -1.34375 C 2.234375 -1.257812 2.257812 -1.179688 2.3125 -1.109375 C 2.363281 -1.035156 2.441406 -1 2.546875 -1 C 2.703125 -1 2.859375 -1.0625 3.015625 -1.1875 C 3.171875 -1.3125 3.320312 -1.457031 3.46875 -1.625 C 3.625 -1.800781 3.757812 -1.976562 3.875 -2.15625 C 4 -2.332031 4.09375 -2.46875 4.15625 -2.5625 L 4.609375 -2.3125 C 4.484375 -2.070312 4.316406 -1.804688 4.109375 -1.515625 C 3.910156 -1.222656 3.679688 -0.953125 3.421875 -0.703125 C 3.160156 -0.460938 2.875 -0.257812 2.5625 -0.09375 C 2.25 0.0703125 1.929688 0.15625 1.609375 0.15625 C 1.316406 0.15625 1.097656 0.0820312 0.953125 -0.0625 C 0.804688 -0.21875 0.734375 -0.472656 0.734375 -0.828125 C 0.734375 -1.117188 0.78125 -1.429688 0.875 -1.765625 C 0.96875 -2.097656 1.109375 -2.519531 1.296875 -3.03125 Z M 4.171875 -10.5625 C 3.921875 -10.5625 3.703125 -10.644531 3.515625 -10.8125 C 3.328125 -10.976562 3.234375 -11.195312 3.234375 -11.46875 C 3.234375 -11.738281 3.320312 -11.96875 3.5 -12.15625 C 3.6875 -12.351562 3.910156 -12.453125 4.171875 -12.453125 C 4.453125 -12.453125 4.679688 -12.351562 4.859375 -12.15625 C 5.035156 -11.96875 5.125 -11.742188 5.125 -11.484375 C 5.125 -11.222656 5.03125 -11.003906 4.84375 -10.828125 C 4.65625 -10.648438 4.429688 -10.5625 4.171875 -10.5625 Z M 4.171875 -10.5625 "/></g></g></g><g fill="#d9d9d9" fill-opacity="1"><g transform="translate(176.202045, 116.460442)"><g><path d="M 6.375 -7.3125 C 6.132812 -7.3125 5.859375 -7.1875 5.546875 -6.9375 C 5.242188 -6.695312 4.9375 -6.375 4.625 -5.96875 C 4.3125 -5.570312 4.007812 -5.113281 3.71875 -4.59375 C 3.425781 -4.070312 3.179688 -3.539062 2.984375 -3 L 1.875 0 L 0.5625 0 L 1.671875 -3.4375 C 1.847656 -3.988281 1.992188 -4.457031 2.109375 -4.84375 C 2.234375 -5.238281 2.332031 -5.566406 2.40625 -5.828125 C 2.476562 -6.085938 2.53125 -6.300781 2.5625 -6.46875 C 2.59375 -6.632812 2.609375 -6.769531 2.609375 -6.875 C 2.609375 -7.144531 2.523438 -7.28125 2.359375 -7.28125 C 2.242188 -7.28125 2.109375 -7.207031 1.953125 -7.0625 C 1.804688 -6.925781 1.65625 -6.742188 1.5 -6.515625 C 1.351562 -6.296875 1.207031 -6.039062 1.0625 -5.75 C 0.925781 -5.457031 0.804688 -5.160156 0.703125 -4.859375 L 0.25 -5.078125 C 0.601562 -6.109375 0.992188 -6.867188 1.421875 -7.359375 C 1.859375 -7.847656 2.359375 -8.09375 2.921875 -8.09375 C 3.242188 -8.09375 3.472656 -8.003906 3.609375 -7.828125 C 3.742188 -7.648438 3.8125 -7.347656 3.8125 -6.921875 C 3.8125 -6.410156 3.726562 -5.953125 3.5625 -5.546875 L 3.59375 -5.5 C 4.101562 -6.40625 4.617188 -7.0625 5.140625 -7.46875 C 5.671875 -7.882812 6.25 -8.09375 6.875 -8.09375 C 7.3125 -8.09375 7.644531 -7.988281 7.875 -7.78125 C 8.101562 -7.570312 8.21875 -7.273438 8.21875 -6.890625 C 8.21875 -6.753906 8.203125 -6.601562 8.171875 -6.4375 C 8.148438 -6.28125 8.109375 -6.085938 8.046875 -5.859375 C 7.992188 -5.640625 7.914062 -5.375 7.8125 -5.0625 C 7.707031 -4.757812 7.578125 -4.382812 7.421875 -3.9375 C 7.191406 -3.25 7 -2.675781 6.84375 -2.21875 C 6.695312 -1.757812 6.625 -1.4375 6.625 -1.25 C 6.625 -1.09375 6.675781 -1.015625 6.78125 -1.015625 C 6.914062 -1.015625 7.117188 -1.128906 7.390625 -1.359375 C 7.660156 -1.585938 8.023438 -1.957031 8.484375 -2.46875 L 8.875 -2.265625 C 8.71875 -1.960938 8.507812 -1.664062 8.25 -1.375 C 8 -1.09375 7.734375 -0.835938 7.453125 -0.609375 C 7.179688 -0.378906 6.910156 -0.191406 6.640625 -0.046875 C 6.367188 0.0859375 6.132812 0.15625 5.9375 0.15625 C 5.6875 0.15625 5.488281 0.046875 5.34375 -0.171875 C 5.195312 -0.398438 5.125 -0.691406 5.125 -1.046875 C 5.125 -1.191406 5.132812 -1.332031 5.15625 -1.46875 C 5.1875 -1.613281 5.238281 -1.820312 5.3125 -2.09375 C 5.394531 -2.363281 5.515625 -2.726562 5.671875 -3.1875 C 5.828125 -3.644531 6.039062 -4.25 6.3125 -5 C 6.40625 -5.257812 6.476562 -5.476562 6.53125 -5.65625 C 6.59375 -5.832031 6.640625 -5.988281 6.671875 -6.125 C 6.710938 -6.257812 6.738281 -6.375 6.75 -6.46875 C 6.769531 -6.570312 6.78125 -6.671875 6.78125 -6.765625 C 6.78125 -7.128906 6.644531 -7.3125 6.375 -7.3125 Z M 6.375 -7.3125 "/></g></g></g><g fill="#d9d9d9" fill-opacity="1"><g transform="translate(185.607039, 116.460442)"><g><path d="M 6.53125 1.09375 C 6.53125 1.519531 6.4375 1.90625 6.25 2.25 C 6.0625 2.601562 5.796875 2.898438 5.453125 3.140625 C 5.109375 3.390625 4.691406 3.578125 4.203125 3.703125 C 3.710938 3.835938 3.160156 3.90625 2.546875 3.90625 C 1.992188 3.90625 1.492188 3.851562 1.046875 3.75 C 0.597656 3.644531 0.210938 3.5 -0.109375 3.3125 C -0.429688 3.125 -0.679688 2.898438 -0.859375 2.640625 C -1.035156 2.390625 -1.125 2.101562 -1.125 1.78125 C -1.125 1.375 -0.988281 1.035156 -0.71875 0.765625 C -0.457031 0.492188 -0.125 0.359375 0.28125 0.359375 C 0.40625 0.359375 0.519531 0.375 0.625 0.40625 C 0.738281 0.4375 0.878906 0.488281 1.046875 0.5625 C 0.484375 0.800781 0.203125 1.238281 0.203125 1.875 C 0.203125 2.289062 0.414062 2.617188 0.84375 2.859375 C 1.269531 3.097656 1.851562 3.21875 2.59375 3.21875 C 2.988281 3.21875 3.359375 3.171875 3.703125 3.078125 C 4.046875 2.992188 4.335938 2.878906 4.578125 2.734375 C 4.828125 2.597656 5.019531 2.441406 5.15625 2.265625 C 5.289062 2.097656 5.359375 1.925781 5.359375 1.75 C 5.359375 1.46875 5.1875 1.210938 4.84375 0.984375 C 4.507812 0.765625 4.039062 0.601562 3.4375 0.5 C 2.34375 0.300781 1.539062 0.078125 1.03125 -0.171875 C 0.519531 -0.421875 0.265625 -0.769531 0.265625 -1.21875 C 0.265625 -1.507812 0.390625 -1.753906 0.640625 -1.953125 C 0.898438 -2.148438 1.363281 -2.347656 2.03125 -2.546875 L 2.0625 -2.609375 C 1.300781 -3.148438 0.921875 -3.84375 0.921875 -4.6875 C 0.921875 -5.15625 1.015625 -5.59375 1.203125 -6 C 1.390625 -6.414062 1.644531 -6.78125 1.96875 -7.09375 C 2.289062 -7.414062 2.671875 -7.664062 3.109375 -7.84375 C 3.546875 -8.019531 4.003906 -8.109375 4.484375 -8.109375 C 5.222656 -8.109375 5.84375 -7.84375 6.34375 -7.3125 C 6.8125 -7.832031 7.265625 -8.09375 7.703125 -8.09375 C 8.023438 -8.09375 8.304688 -7.992188 8.546875 -7.796875 C 8.785156 -7.609375 8.90625 -7.382812 8.90625 -7.125 C 8.90625 -6.925781 8.835938 -6.757812 8.703125 -6.625 C 8.566406 -6.488281 8.398438 -6.421875 8.203125 -6.421875 C 8.054688 -6.421875 7.9375 -6.453125 7.84375 -6.515625 C 7.757812 -6.578125 7.6875 -6.648438 7.625 -6.734375 C 7.570312 -6.816406 7.503906 -6.890625 7.421875 -6.953125 C 7.347656 -7.015625 7.25 -7.046875 7.125 -7.046875 C 7.050781 -7.046875 6.984375 -7.03125 6.921875 -7 C 6.867188 -6.976562 6.757812 -6.914062 6.59375 -6.8125 C 6.644531 -6.664062 6.679688 -6.53125 6.703125 -6.40625 C 6.722656 -6.28125 6.734375 -6.125 6.734375 -5.9375 C 6.734375 -4.84375 6.425781 -3.96875 5.8125 -3.3125 C 5.207031 -2.65625 4.367188 -2.285156 3.296875 -2.203125 C 2.816406 -2.160156 2.472656 -2.097656 2.265625 -2.015625 C 2.066406 -1.941406 1.96875 -1.828125 1.96875 -1.671875 C 1.96875 -1.453125 2.078125 -1.289062 2.296875 -1.1875 C 2.523438 -1.082031 2.804688 -0.992188 3.140625 -0.921875 C 3.484375 -0.859375 3.847656 -0.789062 4.234375 -0.71875 C 4.628906 -0.644531 4.992188 -0.539062 5.328125 -0.40625 C 5.671875 -0.269531 5.957031 -0.0859375 6.1875 0.140625 C 6.414062 0.378906 6.53125 0.695312 6.53125 1.09375 Z M 3.375 -2.859375 C 3.613281 -2.859375 3.847656 -2.953125 4.078125 -3.140625 C 4.304688 -3.335938 4.515625 -3.59375 4.703125 -3.90625 C 4.890625 -4.21875 5.035156 -4.570312 5.140625 -4.96875 C 5.253906 -5.375 5.3125 -5.785156 5.3125 -6.203125 C 5.3125 -6.609375 5.21875 -6.925781 5.03125 -7.15625 C 4.851562 -7.394531 4.617188 -7.515625 4.328125 -7.515625 C 4.097656 -7.515625 3.863281 -7.410156 3.625 -7.203125 C 3.382812 -7.003906 3.164062 -6.742188 2.96875 -6.421875 C 2.78125 -6.097656 2.625 -5.734375 2.5 -5.328125 C 2.382812 -4.921875 2.328125 -4.523438 2.328125 -4.140625 C 2.328125 -3.753906 2.421875 -3.441406 2.609375 -3.203125 C 2.796875 -2.972656 3.050781 -2.859375 3.375 -2.859375 Z M 3.375 -2.859375 "/></g></g></g><g fill="#d9d9d9" fill-opacity="1"><g transform="translate(193.857027, 116.460442)"><g/></g><g transform="translate(197.982027, 116.460442)"><g><path d="M 0.21875 -5.625 C 0.59375 -6.039062 1.007812 -6.414062 1.46875 -6.75 C 1.925781 -7.09375 2.410156 -7.367188 2.921875 -7.578125 L 3.625 -9.96875 L 4.765625 -9.96875 L 4.25 -7.984375 C 4.40625 -8.015625 4.5625 -8.035156 4.71875 -8.046875 C 4.875 -8.066406 5.03125 -8.078125 5.1875 -8.078125 C 6.039062 -8.078125 6.703125 -7.847656 7.171875 -7.390625 C 7.640625 -6.929688 7.875 -6.285156 7.875 -5.453125 C 7.875 -4.796875 7.71875 -4.175781 7.40625 -3.59375 C 7.09375 -3.007812 6.671875 -2.484375 6.140625 -2.015625 C 5.617188 -1.554688 5.015625 -1.175781 4.328125 -0.875 C 3.640625 -0.570312 2.925781 -0.367188 2.1875 -0.265625 L 1.640625 1.8125 C 1.585938 1.96875 1.550781 2.09375 1.53125 2.1875 C 1.519531 2.289062 1.515625 2.378906 1.515625 2.453125 C 1.515625 2.703125 1.613281 2.878906 1.8125 2.984375 C 2.019531 3.085938 2.382812 3.144531 2.90625 3.15625 L 2.8125 3.75 L -1.421875 3.75 L -1.328125 3.15625 C -0.910156 3.15625 -0.609375 3.101562 -0.421875 3 C -0.234375 2.894531 -0.0976562 2.710938 -0.015625 2.453125 L 2.703125 -6.8125 C 2.316406 -6.613281 1.945312 -6.375 1.59375 -6.09375 C 1.25 -5.820312 0.925781 -5.523438 0.625 -5.203125 Z M 4.796875 -7.34375 C 4.671875 -7.34375 4.546875 -7.335938 4.421875 -7.328125 C 4.296875 -7.316406 4.171875 -7.300781 4.046875 -7.28125 L 2.359375 -0.921875 C 2.859375 -1.015625 3.34375 -1.195312 3.8125 -1.46875 C 4.289062 -1.738281 4.710938 -2.070312 5.078125 -2.46875 C 5.453125 -2.875 5.75 -3.320312 5.96875 -3.8125 C 6.195312 -4.3125 6.3125 -4.832031 6.3125 -5.375 C 6.3125 -5.96875 6.171875 -6.441406 5.890625 -6.796875 C 5.617188 -7.160156 5.253906 -7.34375 4.796875 -7.34375 Z M 4.796875 -7.34375 "/></g></g></g><g fill="#d9d9d9" fill-opacity="1"><g transform="translate(206.427022, 116.460442)"><g><path d="M 2.8125 0.15625 C 2.46875 0.15625 2.144531 0.0859375 1.84375 -0.046875 C 1.550781 -0.179688 1.296875 -0.378906 1.078125 -0.640625 C 0.859375 -0.898438 0.679688 -1.21875 0.546875 -1.59375 C 0.421875 -1.96875 0.359375 -2.390625 0.359375 -2.859375 C 0.359375 -3.515625 0.476562 -4.15625 0.71875 -4.78125 C 0.96875 -5.414062 1.289062 -5.976562 1.6875 -6.46875 C 2.09375 -6.957031 2.550781 -7.347656 3.0625 -7.640625 C 3.582031 -7.941406 4.117188 -8.09375 4.671875 -8.09375 C 5.023438 -8.09375 5.351562 -8.023438 5.65625 -7.890625 C 5.96875 -7.753906 6.226562 -7.5625 6.4375 -7.3125 C 6.65625 -7.0625 6.828125 -6.753906 6.953125 -6.390625 C 7.078125 -6.035156 7.140625 -5.644531 7.140625 -5.21875 C 7.140625 -4.59375 7.015625 -3.957031 6.765625 -3.3125 C 6.515625 -2.675781 6.1875 -2.101562 5.78125 -1.59375 C 5.375 -1.082031 4.910156 -0.660156 4.390625 -0.328125 C 3.867188 -0.00390625 3.34375 0.15625 2.8125 0.15625 Z M 2.890625 -0.59375 C 3.234375 -0.59375 3.570312 -0.769531 3.90625 -1.125 C 4.238281 -1.476562 4.535156 -1.921875 4.796875 -2.453125 C 5.066406 -2.984375 5.285156 -3.5625 5.453125 -4.1875 C 5.617188 -4.820312 5.703125 -5.425781 5.703125 -6 C 5.703125 -6.53125 5.609375 -6.894531 5.421875 -7.09375 C 5.234375 -7.289062 4.984375 -7.390625 4.671875 -7.390625 C 4.441406 -7.390625 4.210938 -7.3125 3.984375 -7.15625 C 3.765625 -7.007812 3.554688 -6.800781 3.359375 -6.53125 C 3.160156 -6.257812 2.972656 -5.945312 2.796875 -5.59375 C 2.617188 -5.238281 2.460938 -4.867188 2.328125 -4.484375 C 2.203125 -4.097656 2.101562 -3.703125 2.03125 -3.296875 C 1.96875 -2.890625 1.9375 -2.5 1.9375 -2.125 C 1.9375 -1.570312 2.023438 -1.175781 2.203125 -0.9375 C 2.378906 -0.707031 2.609375 -0.59375 2.890625 -0.59375 Z M 2.890625 -0.59375 "/></g></g></g><g fill="#d9d9d9" fill-opacity="1"><g transform="translate(214.272015, 116.460442)"><g><path d="M 3.53125 -6.703125 L 2.28125 -2.578125 C 2.113281 -2.035156 2.023438 -1.625 2.015625 -1.34375 C 2.015625 -1.257812 2.035156 -1.179688 2.078125 -1.109375 C 2.117188 -1.035156 2.195312 -1 2.3125 -1 C 2.488281 -1 2.675781 -1.066406 2.875 -1.203125 C 3.082031 -1.335938 3.273438 -1.5 3.453125 -1.6875 C 3.640625 -1.875 3.804688 -2.0625 3.953125 -2.25 C 4.097656 -2.445312 4.207031 -2.601562 4.28125 -2.71875 L 4.703125 -2.453125 C 4.535156 -2.117188 4.320312 -1.789062 4.0625 -1.46875 C 3.800781 -1.15625 3.523438 -0.878906 3.234375 -0.640625 C 2.953125 -0.398438 2.660156 -0.207031 2.359375 -0.0625 C 2.066406 0.0820312 1.800781 0.15625 1.5625 0.15625 C 1.207031 0.15625 0.953125 0.0820312 0.796875 -0.0625 C 0.640625 -0.21875 0.5625 -0.472656 0.5625 -0.828125 C 0.5625 -1.023438 0.597656 -1.289062 0.671875 -1.625 C 0.742188 -1.96875 0.863281 -2.4375 1.03125 -3.03125 L 2.140625 -6.703125 L 0.859375 -6.703125 L 1.046875 -7.390625 L 2.359375 -7.390625 L 3.140625 -9.96875 L 4.515625 -9.96875 L 3.734375 -7.390625 L 5.375 -7.390625 L 5.15625 -6.703125 Z M 3.53125 -6.703125 "/></g></g></g><g fill="#d9d9d9" fill-opacity="1"><g transform="translate(219.747006, 116.460442)"><g><path d="M 5.5625 -2 C 4.695312 -0.5625 3.628906 0.15625 2.359375 0.15625 C 1.660156 0.15625 1.125 -0.0546875 0.75 -0.484375 C 0.382812 -0.910156 0.203125 -1.515625 0.203125 -2.296875 C 0.203125 -2.984375 0.34375 -3.671875 0.625 -4.359375 C 0.914062 -5.054688 1.289062 -5.679688 1.75 -6.234375 C 2.207031 -6.785156 2.722656 -7.234375 3.296875 -7.578125 C 3.867188 -7.921875 4.441406 -8.09375 5.015625 -8.09375 C 5.492188 -8.09375 5.882812 -7.96875 6.1875 -7.71875 C 6.488281 -7.476562 6.640625 -7.171875 6.640625 -6.796875 C 6.640625 -6.441406 6.507812 -6.078125 6.25 -5.703125 C 5.988281 -5.335938 5.632812 -4.988281 5.1875 -4.65625 C 4.75 -4.332031 4.234375 -4.035156 3.640625 -3.765625 C 3.046875 -3.492188 2.410156 -3.285156 1.734375 -3.140625 C 1.710938 -2.992188 1.695312 -2.851562 1.6875 -2.71875 C 1.6875 -2.582031 1.6875 -2.445312 1.6875 -2.3125 C 1.6875 -1.21875 2.066406 -0.671875 2.828125 -0.671875 C 3.203125 -0.671875 3.585938 -0.816406 3.984375 -1.109375 C 4.378906 -1.398438 4.742188 -1.800781 5.078125 -2.3125 Z M 4.703125 -7.390625 C 4.441406 -7.390625 4.171875 -7.289062 3.890625 -7.09375 C 3.617188 -6.894531 3.351562 -6.628906 3.09375 -6.296875 C 2.84375 -5.960938 2.609375 -5.578125 2.390625 -5.140625 C 2.179688 -4.710938 2.015625 -4.269531 1.890625 -3.8125 C 2.367188 -3.9375 2.8125 -4.101562 3.21875 -4.3125 C 3.632812 -4.53125 3.988281 -4.769531 4.28125 -5.03125 C 4.570312 -5.300781 4.800781 -5.582031 4.96875 -5.875 C 5.144531 -6.164062 5.234375 -6.460938 5.234375 -6.765625 C 5.234375 -7.179688 5.054688 -7.390625 4.703125 -7.390625 Z M 4.703125 -7.390625 "/></g></g></g><g fill="#d9d9d9" fill-opacity="1"><g transform="translate(226.587002, 116.460442)"><g><path d="M 6.375 -7.3125 C 6.132812 -7.3125 5.859375 -7.1875 5.546875 -6.9375 C 5.242188 -6.695312 4.9375 -6.375 4.625 -5.96875 C 4.3125 -5.570312 4.007812 -5.113281 3.71875 -4.59375 C 3.425781 -4.070312 3.179688 -3.539062 2.984375 -3 L 1.875 0 L 0.5625 0 L 1.671875 -3.4375 C 1.847656 -3.988281 1.992188 -4.457031 2.109375 -4.84375 C 2.234375 -5.238281 2.332031 -5.566406 2.40625 -5.828125 C 2.476562 -6.085938 2.53125 -6.300781 2.5625 -6.46875 C 2.59375 -6.632812 2.609375 -6.769531 2.609375 -6.875 C 2.609375 -7.144531 2.523438 -7.28125 2.359375 -7.28125 C 2.242188 -7.28125 2.109375 -7.207031 1.953125 -7.0625 C 1.804688 -6.925781 1.65625 -6.742188 1.5 -6.515625 C 1.351562 -6.296875 1.207031 -6.039062 1.0625 -5.75 C 0.925781 -5.457031 0.804688 -5.160156 0.703125 -4.859375 L 0.25 -5.078125 C 0.601562 -6.109375 0.992188 -6.867188 1.421875 -7.359375 C 1.859375 -7.847656 2.359375 -8.09375 2.921875 -8.09375 C 3.242188 -8.09375 3.472656 -8.003906 3.609375 -7.828125 C 3.742188 -7.648438 3.8125 -7.347656 3.8125 -6.921875 C 3.8125 -6.410156 3.726562 -5.953125 3.5625 -5.546875 L 3.59375 -5.5 C 4.101562 -6.40625 4.617188 -7.0625 5.140625 -7.46875 C 5.671875 -7.882812 6.25 -8.09375 6.875 -8.09375 C 7.3125 -8.09375 7.644531 -7.988281 7.875 -7.78125 C 8.101562 -7.570312 8.21875 -7.273438 8.21875 -6.890625 C 8.21875 -6.753906 8.203125 -6.601562 8.171875 -6.4375 C 8.148438 -6.28125 8.109375 -6.085938 8.046875 -5.859375 C 7.992188 -5.640625 7.914062 -5.375 7.8125 -5.0625 C 7.707031 -4.757812 7.578125 -4.382812 7.421875 -3.9375 C 7.191406 -3.25 7 -2.675781 6.84375 -2.21875 C 6.695312 -1.757812 6.625 -1.4375 6.625 -1.25 C 6.625 -1.09375 6.675781 -1.015625 6.78125 -1.015625 C 6.914062 -1.015625 7.117188 -1.128906 7.390625 -1.359375 C 7.660156 -1.585938 8.023438 -1.957031 8.484375 -2.46875 L 8.875 -2.265625 C 8.71875 -1.960938 8.507812 -1.664062 8.25 -1.375 C 8 -1.09375 7.734375 -0.835938 7.453125 -0.609375 C 7.179688 -0.378906 6.910156 -0.191406 6.640625 -0.046875 C 6.367188 0.0859375 6.132812 0.15625 5.9375 0.15625 C 5.6875 0.15625 5.488281 0.046875 5.34375 -0.171875 C 5.195312 -0.398438 5.125 -0.691406 5.125 -1.046875 C 5.125 -1.191406 5.132812 -1.332031 5.15625 -1.46875 C 5.1875 -1.613281 5.238281 -1.820312 5.3125 -2.09375 C 5.394531 -2.363281 5.515625 -2.726562 5.671875 -3.1875 C 5.828125 -3.644531 6.039062 -4.25 6.3125 -5 C 6.40625 -5.257812 6.476562 -5.476562 6.53125 -5.65625 C 6.59375 -5.832031 6.640625 -5.988281 6.671875 -6.125 C 6.710938 -6.257812 6.738281 -6.375 6.75 -6.46875 C 6.769531 -6.570312 6.78125 -6.671875 6.78125 -6.765625 C 6.78125 -7.128906 6.644531 -7.3125 6.375 -7.3125 Z M 6.375 -7.3125 "/></g></g></g><g fill="#d9d9d9" fill-opacity="1"><g transform="translate(235.991996, 116.460442)"><g><path d="M 3.53125 -6.703125 L 2.28125 -2.578125 C 2.113281 -2.035156 2.023438 -1.625 2.015625 -1.34375 C 2.015625 -1.257812 2.035156 -1.179688 2.078125 -1.109375 C 2.117188 -1.035156 2.195312 -1 2.3125 -1 C 2.488281 -1 2.675781 -1.066406 2.875 -1.203125 C 3.082031 -1.335938 3.273438 -1.5 3.453125 -1.6875 C 3.640625 -1.875 3.804688 -2.0625 3.953125 -2.25 C 4.097656 -2.445312 4.207031 -2.601562 4.28125 -2.71875 L 4.703125 -2.453125 C 4.535156 -2.117188 4.320312 -1.789062 4.0625 -1.46875 C 3.800781 -1.15625 3.523438 -0.878906 3.234375 -0.640625 C 2.953125 -0.398438 2.660156 -0.207031 2.359375 -0.0625 C 2.066406 0.0820312 1.800781 0.15625 1.5625 0.15625 C 1.207031 0.15625 0.953125 0.0820312 0.796875 -0.0625 C 0.640625 -0.21875 0.5625 -0.472656 0.5625 -0.828125 C 0.5625 -1.023438 0.597656 -1.289062 0.671875 -1.625 C 0.742188 -1.96875 0.863281 -2.4375 1.03125 -3.03125 L 2.140625 -6.703125 L 0.859375 -6.703125 L 1.046875 -7.390625 L 2.359375 -7.390625 L 3.140625 -9.96875 L 4.515625 -9.96875 L 3.734375 -7.390625 L 5.375 -7.390625 L 5.15625 -6.703125 Z M 3.53125 -6.703125 "/></g></g></g><g fill="#d9d9d9" fill-opacity="1"><g transform="translate(241.466987, 116.460442)"><g><path d="M 1.96875 -4.953125 C 2.101562 -5.335938 2.203125 -5.648438 2.265625 -5.890625 C 2.328125 -6.128906 2.359375 -6.320312 2.359375 -6.46875 C 2.359375 -6.601562 2.332031 -6.691406 2.28125 -6.734375 C 2.238281 -6.785156 2.191406 -6.8125 2.140625 -6.8125 C 2.035156 -6.8125 1.914062 -6.757812 1.78125 -6.65625 C 1.65625 -6.550781 1.523438 -6.425781 1.390625 -6.28125 C 1.265625 -6.144531 1.148438 -6.003906 1.046875 -5.859375 C 0.953125 -5.722656 0.882812 -5.613281 0.84375 -5.53125 L 0.40625 -5.8125 C 0.519531 -6.03125 0.6875 -6.269531 0.90625 -6.53125 C 1.125 -6.800781 1.367188 -7.050781 1.640625 -7.28125 C 1.910156 -7.519531 2.1875 -7.710938 2.46875 -7.859375 C 2.757812 -8.015625 3.035156 -8.09375 3.296875 -8.09375 C 3.546875 -8.09375 3.734375 -8.019531 3.859375 -7.875 C 3.984375 -7.738281 4.046875 -7.476562 4.046875 -7.09375 C 4.046875 -6.800781 3.957031 -6.410156 3.78125 -5.921875 C 3.613281 -5.429688 3.390625 -4.800781 3.109375 -4.03125 L 2.546875 -2.515625 C 2.523438 -2.460938 2.5 -2.382812 2.46875 -2.28125 C 2.4375 -2.175781 2.398438 -2.066406 2.359375 -1.953125 C 2.328125 -1.835938 2.296875 -1.722656 2.265625 -1.609375 C 2.242188 -1.503906 2.234375 -1.414062 2.234375 -1.34375 C 2.234375 -1.257812 2.257812 -1.179688 2.3125 -1.109375 C 2.363281 -1.035156 2.441406 -1 2.546875 -1 C 2.703125 -1 2.859375 -1.0625 3.015625 -1.1875 C 3.171875 -1.3125 3.320312 -1.457031 3.46875 -1.625 C 3.625 -1.800781 3.757812 -1.976562 3.875 -2.15625 C 4 -2.332031 4.09375 -2.46875 4.15625 -2.5625 L 4.609375 -2.3125 C 4.484375 -2.070312 4.316406 -1.804688 4.109375 -1.515625 C 3.910156 -1.222656 3.679688 -0.953125 3.421875 -0.703125 C 3.160156 -0.460938 2.875 -0.257812 2.5625 -0.09375 C 2.25 0.0703125 1.929688 0.15625 1.609375 0.15625 C 1.316406 0.15625 1.097656 0.0820312 0.953125 -0.0625 C 0.804688 -0.21875 0.734375 -0.472656 0.734375 -0.828125 C 0.734375 -1.117188 0.78125 -1.429688 0.875 -1.765625 C 0.96875 -2.097656 1.109375 -2.519531 1.296875 -3.03125 Z M 4.171875 -10.5625 C 3.921875 -10.5625 3.703125 -10.644531 3.515625 -10.8125 C 3.328125 -10.976562 3.234375 -11.195312 3.234375 -11.46875 C 3.234375 -11.738281 3.320312 -11.96875 3.5 -12.15625 C 3.6875 -12.351562 3.910156 -12.453125 4.171875 -12.453125 C 4.453125 -12.453125 4.679688 -12.351562 4.859375 -12.15625 C 5.035156 -11.96875 5.125 -11.742188 5.125 -11.484375 C 5.125 -11.222656 5.03125 -11.003906 4.84375 -10.828125 C 4.65625 -10.648438 4.429688 -10.5625 4.171875 -10.5625 Z M 4.171875 -10.5625 "/></g></g></g><g fill="#d9d9d9" fill-opacity="1"><g transform="translate(246.626979, 116.460442)"><g><path d="M 4.984375 -7.3125 C 4.597656 -7.3125 4.203125 -7.132812 3.796875 -6.78125 C 3.390625 -6.4375 3.019531 -6 2.6875 -5.46875 C 2.363281 -4.945312 2.097656 -4.382812 1.890625 -3.78125 C 1.679688 -3.175781 1.578125 -2.613281 1.578125 -2.09375 C 1.578125 -1.738281 1.648438 -1.453125 1.796875 -1.234375 C 1.953125 -1.023438 2.160156 -0.921875 2.421875 -0.921875 C 2.648438 -0.921875 2.890625 -1.007812 3.140625 -1.1875 C 3.390625 -1.375 3.628906 -1.617188 3.859375 -1.921875 C 4.097656 -2.234375 4.320312 -2.582031 4.53125 -2.96875 C 4.738281 -3.363281 4.921875 -3.765625 5.078125 -4.171875 C 5.242188 -4.585938 5.367188 -4.992188 5.453125 -5.390625 C 5.546875 -5.796875 5.59375 -6.160156 5.59375 -6.484375 C 5.59375 -6.742188 5.535156 -6.945312 5.421875 -7.09375 C 5.316406 -7.238281 5.171875 -7.3125 4.984375 -7.3125 Z M 6.53125 -7.953125 L 7.765625 -7.953125 L 6.921875 -5.65625 C 6.773438 -5.269531 6.632812 -4.863281 6.5 -4.4375 C 6.363281 -4.007812 6.242188 -3.59375 6.140625 -3.1875 C 6.035156 -2.789062 5.953125 -2.425781 5.890625 -2.09375 C 5.835938 -1.769531 5.8125 -1.523438 5.8125 -1.359375 C 5.8125 -1.078125 5.90625 -0.9375 6.09375 -0.9375 C 6.226562 -0.9375 6.425781 -1.078125 6.6875 -1.359375 C 6.957031 -1.648438 7.257812 -2.023438 7.59375 -2.484375 L 7.984375 -2.171875 C 7.554688 -1.429688 7.097656 -0.859375 6.609375 -0.453125 C 6.128906 -0.046875 5.664062 0.15625 5.21875 0.15625 C 4.988281 0.15625 4.8125 0.0664062 4.6875 -0.109375 C 4.5625 -0.285156 4.5 -0.570312 4.5 -0.96875 C 4.5 -1.0625 4.5 -1.164062 4.5 -1.28125 C 4.507812 -1.40625 4.523438 -1.566406 4.546875 -1.765625 L 4.484375 -1.78125 C 4.335938 -1.5 4.160156 -1.238281 3.953125 -1 C 3.742188 -0.769531 3.519531 -0.566406 3.28125 -0.390625 C 3.039062 -0.222656 2.789062 -0.09375 2.53125 0 C 2.269531 0.101562 2.015625 0.15625 1.765625 0.15625 C 1.253906 0.15625 0.859375 -0.0351562 0.578125 -0.421875 C 0.296875 -0.804688 0.15625 -1.34375 0.15625 -2.03125 C 0.15625 -2.71875 0.296875 -3.421875 0.578125 -4.140625 C 0.867188 -4.859375 1.242188 -5.507812 1.703125 -6.09375 C 2.171875 -6.675781 2.679688 -7.15625 3.234375 -7.53125 C 3.796875 -7.90625 4.347656 -8.09375 4.890625 -8.09375 C 5.222656 -8.09375 5.492188 -8.015625 5.703125 -7.859375 C 5.910156 -7.710938 6.078125 -7.460938 6.203125 -7.109375 Z M 6.53125 -7.953125 "/></g></g></g><g fill="#d9d9d9" fill-opacity="1"><g transform="translate(255.176974, 116.460442)"><g><path d="M 2.75 -10.359375 C 2.789062 -10.546875 2.835938 -10.726562 2.890625 -10.90625 C 2.941406 -11.09375 2.96875 -11.234375 2.96875 -11.328125 C 2.96875 -11.671875 2.585938 -11.84375 1.828125 -11.84375 L 1.953125 -12.296875 L 4.6875 -12.4375 L 2.015625 -2.578125 C 1.929688 -2.304688 1.867188 -2.066406 1.828125 -1.859375 C 1.785156 -1.660156 1.765625 -1.488281 1.765625 -1.34375 C 1.765625 -1.257812 1.789062 -1.179688 1.84375 -1.109375 C 1.894531 -1.035156 1.972656 -1 2.078125 -1 C 2.242188 -1 2.414062 -1.066406 2.59375 -1.203125 C 2.769531 -1.335938 2.941406 -1.5 3.109375 -1.6875 C 3.273438 -1.875 3.421875 -2.0625 3.546875 -2.25 C 3.679688 -2.445312 3.78125 -2.601562 3.84375 -2.71875 L 4.296875 -2.453125 C 4.140625 -2.117188 3.941406 -1.789062 3.703125 -1.46875 C 3.460938 -1.15625 3.207031 -0.878906 2.9375 -0.640625 C 2.664062 -0.398438 2.390625 -0.207031 2.109375 -0.0625 C 1.835938 0.0820312 1.585938 0.15625 1.359375 0.15625 C 1.015625 0.15625 0.757812 0.0820312 0.59375 -0.0625 C 0.425781 -0.21875 0.34375 -0.472656 0.34375 -0.828125 C 0.34375 -1.023438 0.375 -1.289062 0.4375 -1.625 C 0.5 -1.96875 0.601562 -2.4375 0.75 -3.03125 Z M 2.75 -10.359375 "/></g></g></g></svg>