<svg xmlns="http://www.w3.org/2000/svg" xmlns:xlink="http://www.w3.org/1999/xlink" width="1587" zoomAndPan="magnify" viewBox="0 0 1190.25 1683.749945" height="2245" preserveAspectRatio="xMidYMid meet" version="1.0"><defs><filter x="0%" y="0%" width="100%" height="100%" id="0e1b3de904"><feColorMatrix values="0 0 0 0 1 0 0 0 0 1 0 0 0 0 1 0 0 0 1 0" color-interpolation-filters="sRGB"/></filter><clipPath id="b5a384bb5e"><path d="M 487 1047 L 1016 1047 L 1016 1502.375 L 487 1502.375 Z M 487 1047 " clip-rule="nonzero"/></clipPath><mask id="c675b683a5"><g filter="url(#0e1b3de904)"><rect x="-119.025" width="1428.3" fill="#000000" y="-168.374994" height="2020.499934" fill-opacity="0.1"/></g></mask><clipPath id="cf1456a6fb"><rect x="0" width="529" y="0" height="456"/></clipPath><clipPath id="fc282d042a"><path d="M 70 706 L 1153.765625 706 L 1153.765625 1173 L 70 1173 Z M 70 706 " clip-rule="nonzero"/></clipPath><clipPath id="a0404a65f0"><path d="M 36.21875 182 L 971 182 L 971 1501 L 36.21875 1501 Z M 36.21875 182 " clip-rule="nonzero"/></clipPath><mask id="ac43c34cff"><g filter="url(#0e1b3de904)"><rect x="-119.025" width="1428.3" fill="#000000" y="-168.374994" height="2020.499934" fill-opacity="0.1"/></g></mask><clipPath id="71f667d3ec"><path d="M 1 2 L 140.957031 2 L 140.957031 20 L 1 20 Z M 1 2 " clip-rule="nonzero"/></clipPath><clipPath id="6b9d462715"><rect x="0" width="141" y="0" height="22"/></clipPath></defs><path fill="#fde2dd" d="M 846.921875 666.898438 L 283.574219 666.898438 C 267.792969 666.898438 254.992188 654.097656 254.992188 638.316406 L 254.992188 229.507812 C 254.992188 213.726562 267.792969 200.929688 283.574219 200.929688 L 846.921875 200.929688 C 862.703125 200.929688 875.503906 213.726562 875.503906 229.507812 L 875.503906 638.34375 C 875.503906 654.097656 862.703125 666.898438 846.921875 666.898438 Z M 108.765625 1003.265625 L 180.835938 1188.394531 C 195.800781 1226.84375 232.984375 1252.019531 274.230469 1251.625 L 333.160156 1251.625 L 370.105469 1266.296875 L 391.90625 1251.625 L 604.582031 1251.625 C 613.898438 1251.625 621.445312 1244.078125 621.445312 1234.761719 C 621.445312 1225.445312 613.898438 1217.898438 604.582031 1217.898438 L 544.492188 1217.898438 C 508.679688 1217.898438 476.539062 1195.96875 463.472656 1162.609375 L 399.214844 998.542969 C 386.125 965.105469 353.746094 943.230469 317.828125 943.574219 L 148.058594 945.128906 C 118.265625 945.421875 97.945312 975.453125 108.765625 1003.265625 " fill-opacity="1" fill-rule="nonzero"/><path fill="#004aad" d="M 669.898438 318.707031 C 696.550781 353.570312 703.070312 397.480469 691.378906 436.511719 L 667.363281 449.257812 L 631.976562 415.71875 C 636.988281 396.003906 633.296875 374.257812 619.96875 356.839844 C 608.671875 342.089844 592.601562 333.167969 575.578125 330.609375 C 572.597656 330.160156 569.617188 329.871094 566.582031 329.816406 C 551.539062 329.5 536.257812 334.09375 523.378906 343.9375 C 501.449219 360.695312 492.398438 388.0625 497.886719 413.367188 C 491.738281 412.894531 486.195312 428.992188 478.832031 428.359375 C 464.582031 427.171875 447.480469 409.121094 433.839844 407.90625 C 430.882812 365.234375 448.695312 321.925781 485.246094 294.007812 C 501.34375 281.707031 519.367188 273.6875 537.949219 269.78125 C 555.128906 266.164062 572.78125 266.058594 589.855469 269.277344 C 620.601562 275.164062 649.394531 291.894531 669.898438 318.707031 Z M 669.898438 318.707031 " fill-opacity="1" fill-rule="nonzero"/><path fill="#0097b2" d="M 607.089844 453.457031 C 619.914062 443.664062 628.308594 430.230469 632 415.742188 L 691.40625 436.539062 C 683.726562 462.242188 668.183594 485.835938 645.25 503.359375 C 624.003906 519.589844 599.4375 528.324219 574.628906 530.066406 C 573.441406 522.886719 562.570312 513.253906 561.171875 504.863281 C 558.902344 491.246094 566.054688 478.550781 564.101562 467.546875 C 579.0625 467.839844 594.238281 463.273438 607.089844 453.457031 Z M 607.089844 453.457031 " fill-opacity="1" fill-rule="nonzero"/><path fill="#f8b6ad" d="M 1095.941406 1406.746094 C 1095.753906 1406.246094 1095.570312 1405.691406 1095.414062 1405.058594 C 1087.390625 1373.890625 1112.988281 1205.917969 1104.570312 1169.3125 C 1095.992188 1131.972656 912.265625 1161.976562 912.265625 1161.976562 L 921.078125 1401.652344 C 921.078125 1401.652344 919.945312 1404.1875 917.332031 1407.988281 C 917.332031 1407.988281 943.113281 1465.175781 996.082031 1469.132812 C 1049.019531 1473.089844 1095.941406 1406.746094 1095.941406 1406.746094 Z M 1006.292969 1444.035156 C 1006.292969 1444.035156 1000.171875 1418.570312 990.378906 1407.960938 L 1012.625 1295.75 C 1017.695312 1331.21875 1022.574219 1365.367188 1025.875 1388.5625 C 1026.667969 1394.050781 1026.71875 1399.515625 1026.085938 1404.871094 C 1024.34375 1419.78125 1017.378906 1433.71875 1006.292969 1444.035156 Z M 1006.292969 1444.035156 " fill-opacity="1" fill-rule="nonzero"/><path fill="#010101" d="M 574.601562 530.066406 C 531.878906 533.074219 488.546875 515.234375 460.597656 478.683594 C 444.339844 457.414062 435.582031 432.792969 433.863281 407.933594 C 454.582031 409.753906 479.835938 411.945312 497.914062 413.367188 C 500 422.949219 504.140625 432.238281 510.5 440.523438 C 523.800781 457.914062 543.753906 467.203125 564.074219 467.574219 C 567.214844 485.335938 571.515625 511.195312 574.601562 530.066406 Z M 883.605469 509.085938 C 882.390625 509.507812 876.980469 507.792969 878.195312 508.269531 C 860.222656 472.878906 835.679688 440.101562 806.996094 412.683594 C 793.984375 400.253906 776.382812 392.601562 756.960938 392.601562 C 731.230469 392.601562 706.949219 406.691406 694.152344 428.992188 C 678.582031 456.09375 682.195312 491.457031 693.515625 519.40625 C 695.890625 525.289062 693.703125 526.476562 690.695312 532.046875 C 687.683594 537.613281 683.277344 542.335938 680.03125 547.773438 C 673.832031 558.171875 672.0625 571.128906 675.308594 582.765625 C 678.132812 592.953125 684.542969 602.109375 685.785156 612.613281 C 687.050781 623.171875 682.882812 633.671875 677.523438 642.882812 C 672.167969 652.09375 665.570312 660.589844 661.136719 670.25 L 764.746094 670.25 M 387.234375 723.796875 L 363.71875 729.707031 L 300.4375 744.511719 C 260.007812 753.960938 235.808594 795.445312 247.523438 835.292969 L 220.210938 1029.128906 L 556.789062 1029.128906 L 540.875 797.425781 C 538.84375 767.945312 516.386719 743.957031 487.121094 739.972656 L 460.070312 736.304688 L 440.460938 726.59375 Z M 387.234375 723.796875 " fill-opacity="1" fill-rule="nonzero"/><path fill="#0097b2" d="M 1112.066406 1500.378906 L 823.988281 1500.378906 C 823.988281 1499.242188 824.015625 1498.082031 824.097656 1496.921875 C 825.519531 1470.371094 844.046875 1447.703125 869.40625 1439.707031 C 872.441406 1438.757812 875.792969 1437.621094 879.515625 1436.25 C 900.441406 1428.675781 911.976562 1415.667969 917.304688 1407.933594 L 924.851562 1407.933594 C 934.0625 1407.933594 939.5 1418.699219 933.667969 1425.828125 C 933.613281 1425.878906 933.589844 1425.933594 933.535156 1425.957031 C 935.699219 1423.847656 937.546875 1421.367188 939.078125 1418.9375 C 943.328125 1412.15625 950.664062 1407.933594 958.660156 1407.933594 L 990.378906 1407.933594 C 1000.195312 1418.542969 1006.292969 1444.007812 1006.292969 1444.007812 C 1017.351562 1433.691406 1024.316406 1419.757812 1026.058594 1404.847656 L 1055.984375 1404.847656 C 1065.804688 1405.136719 1072.902344 1414.347656 1070.683594 1423.898438 C 1072.558594 1412.972656 1082.058594 1404.976562 1093.144531 1405.03125 L 1095.414062 1405.03125 C 1095.570312 1405.636719 1095.753906 1406.21875 1095.941406 1406.71875 C 1118.898438 1453.273438 1112.066406 1500.378906 1112.066406 1500.378906 Z M 1012.625 1295.75 Z M 739.121094 1501.511719 C 739.121094 1500.640625 739.09375 1499.773438 739.039062 1498.925781 C 737.828125 1478.527344 723.179688 1461.480469 703.597656 1455.621094 C 700.984375 1454.828125 698.214844 1453.851562 695.363281 1452.636719 C 673.222656 1443.085938 656.757812 1423.875 656.757812 1423.875 L 473.742188 1410.441406 C 442.601562 1436.382812 438.71875 1500.40625 438.71875 1500.40625 Z M 739.121094 1501.511719 C 739.121094 1500.640625 739.09375 1499.773438 739.039062 1498.925781 C 737.828125 1478.527344 723.179688 1461.480469 703.597656 1455.621094 C 700.984375 1454.828125 698.214844 1453.851562 695.363281 1452.636719 C 673.222656 1443.085938 656.757812 1423.875 656.757812 1423.875 L 473.742188 1410.441406 C 442.601562 1436.382812 438.71875 1500.40625 438.71875 1500.40625 Z M 75.171875 955.265625 L 233.695312 967.246094 L 277.082031 955.265625 L 277.082031 949.21875 L 255.835938 930.589844 L 277.082031 907.707031 L 277.082031 901.664062 L 261.800781 901.664062 L 252.351562 893.800781 L 92.71875 901.664062 L 75.195312 901.664062 C 58.492188 930.191406 74.933594 953.074219 75.171875 955.265625 Z M 75.171875 955.265625 " fill-opacity="1" fill-rule="nonzero"/><path fill="#004aad" d="M 315.636719 264.476562 C 315.636719 262.074219 317.589844 260.121094 319.992188 260.121094 L 386.8125 260.121094 C 389.210938 260.121094 391.164062 262.074219 391.164062 264.476562 C 391.164062 266.878906 389.210938 268.828125 386.8125 268.828125 L 319.992188 268.828125 C 317.589844 268.855469 315.636719 266.902344 315.636719 264.476562 Z M 374.066406 279.808594 L 320.019531 279.808594 C 317.617188 279.808594 315.664062 281.761719 315.664062 284.164062 C 315.664062 286.5625 317.617188 288.515625 320.019531 288.515625 L 374.066406 288.515625 C 376.464844 288.515625 378.417969 286.5625 378.417969 284.164062 C 378.417969 281.761719 376.464844 279.808594 374.066406 279.808594 Z M 1112.511719 705.878906 C 1113.464844 683.867188 1110.667969 653.675781 1107.65625 629.292969 C 1104.332031 602.164062 1089.898438 577.671875 1067.835938 561.523438 C 1030.703125 534.367188 976.472656 497.183594 942.824219 478.789062 C 919.839844 466.226562 892.367188 466.070312 869.488281 477.734375 C 865.820312 479.609375 865.316406 496.496094 861.9375 498.953125 L 852.414062 512.148438 L 844.734375 521.121094 L 823.882812 543.839844 C 823.882812 543.839844 801.769531 532.492188 791.636719 545.027344 C 781.925781 557.0625 770.496094 571.394531 763.082031 581.421875 C 747.90625 601.925781 674.359375 709.914062 674.359375 709.914062 C 667.628906 745.011719 694.519531 777.550781 730.253906 777.550781 C 752.234375 777.550781 772.265625 764.886719 781.6875 745.011719 L 813.355469 678.195312 C 815.335938 692.207031 859.222656 716.433594 859.222656 716.433594 C 876.507812 722.527344 919.46875 810.089844 919.46875 810.089844 L 1052.84375 797.554688 Z M 656.730469 1137.171875 C 656.730469 1245.449219 656.730469 1424.03125 656.730469 1423.847656 C 656.730469 1423.582031 441.625 1423.847656 441.625 1423.847656 L 441.625 1210.246094 L 319.753906 1210.246094 C 255.386719 1210.246094 205.433594 1154.0625 212.980469 1090.144531 L 220.183594 1029.101562 L 477.199219 1038.289062 L 575.789062 1056.257812 C 620.523438 1056.257812 656.730469 1092.492188 656.730469 1137.171875 Z M 68.441406 955.265625 L 284.8125 955.265625 L 284.8125 961.597656 L 268.609375 984.398438 L 284.8125 994.847656 L 284.8125 1001.183594 L 68.441406 1001.183594 C 68.441406 998.941406 54.453125 983.710938 68.441406 955.265625 Z M 68.441406 955.265625 " fill-opacity="1" fill-rule="nonzero"/><g clip-path="url(#b5a384bb5e)"><g mask="url(#c675b683a5)"><g transform="matrix(1, 0, 0, 1, 487, 1047)"><g clip-path="url(#cf1456a6fb)"><path fill="#010101" d="M 503.378906 360.960938 C 513.195312 371.570312 519.292969 397.035156 519.292969 397.035156 C 519.1875 397.089844 519.054688 397.140625 518.949219 397.21875 C 496.148438 408.515625 479.363281 428.992188 472.953125 453.378906 L 337.015625 453.378906 C 337.015625 452.242188 337.042969 451.082031 337.121094 449.921875 C 338.546875 423.371094 357.074219 400.703125 382.433594 392.707031 C 385.46875 391.757812 388.820312 390.621094 392.542969 389.25 C 413.46875 381.675781 425 368.667969 430.332031 360.933594 L 430.359375 360.933594 C 432.972656 357.132812 434.105469 354.601562 434.105469 354.601562 L 425.292969 114.925781 C 425.292969 114.925781 460.523438 109.171875 500.847656 105.847656 C 511.71875 166.015625 525.652344 248.695312 525.652344 248.695312 Z M 216.597656 408.621094 C 213.984375 407.828125 211.214844 406.851562 208.363281 405.636719 C 186.222656 396.085938 169.757812 376.875 169.757812 376.875 L 169.597656 376.875 C 169.703125 376.875 169.757812 376.875 169.757812 376.875 C 169.757812 377.058594 169.757812 198.476562 169.757812 90.199219 C 169.757812 45.519531 133.523438 9.3125 88.84375 9.3125 L 47.648438 1.789062 L 1.015625 9.3125 C 45.695312 9.3125 81.929688 45.519531 81.929688 90.199219 C 81.929688 196.972656 81.929688 372.097656 81.929688 376.769531 C 81.480469 376.769531 80.664062 376.875 80.398438 376.875 C 85.175781 395.109375 92.90625 405.375 99.269531 411.046875 C 108.925781 419.625 116.421875 430.417969 120.140625 442.796875 C 121.648438 447.785156 122.492188 451.664062 122.964844 454.066406 L 252.121094 454.539062 C 252.121094 453.667969 252.09375 452.796875 252.039062 451.953125 C 250.851562 431.5 236.207031 414.453125 216.597656 408.621094 Z M 216.597656 408.621094 " fill-opacity="1" fill-rule="nonzero"/></g></g></g></g><g clip-path="url(#fc282d042a)"><path fill="#fde2dd" d="M 1153.472656 1172.453125 L 896.695312 1172.453125 L 919.46875 810.066406 L 1100.03125 706.21875 C 1100.03125 706.21875 1149.089844 804.207031 1149.089844 860.574219 C 1149.222656 940.800781 1134.628906 1098.191406 1134.628906 1098.191406 Z M 383.484375 710.890625 L 363.746094 729.679688 L 385.597656 772.722656 L 425.234375 742.796875 L 464.820312 769.003906 L 460.097656 736.277344 L 443.917969 720.707031 Z M 284.839844 961.597656 L 74.878906 961.597656 C 64.746094 982.183594 74.878906 993.210938 74.878906 994.847656 L 284.8125 994.847656 C 284.839844 994.847656 277.082031 980.414062 284.839844 961.597656 Z M 277.082031 907.734375 L 82.191406 907.734375 C 74.589844 929.429688 82.003906 947.558594 82.191406 949.246094 L 277.054688 949.246094 C 277.082031 949.246094 267.289062 928.453125 277.082031 907.734375 Z M 261.773438 839.492188 L 92.691406 839.492188 L 92.691406 901.851562 L 261.773438 901.851562 Z M 334.875 1025.832031 L 355.777344 1025.832031 C 368.972656 1025.832031 379.660156 1015.144531 379.660156 1001.949219 L 379.660156 999.785156 C 379.660156 986.589844 368.972656 975.902344 355.777344 975.902344 L 334.875 975.902344 C 321.679688 975.902344 310.992188 986.589844 310.992188 999.785156 L 310.992188 1001.949219 C 311.019531 1015.144531 321.707031 1025.832031 334.875 1025.832031 Z M 334.875 1025.832031 " fill-opacity="1" fill-rule="nonzero"/></g><path fill="#010101" d="M 691.195312 555.425781 C 691.195312 558.011719 689.082031 560.125 686.496094 560.125 L 441.648438 560.125 C 439.0625 560.125 436.953125 558.011719 436.953125 555.425781 C 436.953125 552.839844 439.0625 550.730469 441.648438 550.730469 L 686.496094 550.730469 C 689.082031 550.730469 691.195312 552.8125 691.195312 555.425781 Z M 686.496094 575.457031 L 441.648438 575.457031 C 439.0625 575.457031 436.953125 577.566406 436.953125 580.15625 C 436.953125 582.742188 439.0625 584.851562 441.648438 584.851562 L 686.496094 584.851562 C 689.082031 584.851562 691.195312 582.742188 691.195312 580.15625 C 691.195312 577.566406 689.082031 575.457031 686.496094 575.457031 Z M 686.496094 600.210938 L 441.648438 600.210938 C 439.0625 600.210938 436.953125 602.320312 436.953125 604.910156 C 436.953125 607.496094 439.0625 609.605469 441.648438 609.605469 L 686.496094 609.605469 C 689.082031 609.605469 691.195312 607.496094 691.195312 604.910156 C 691.195312 602.296875 689.082031 600.210938 686.496094 600.210938 Z M 581.304688 624.9375 L 441.625 624.9375 C 439.039062 624.9375 436.925781 627.050781 436.925781 629.636719 C 436.925781 632.222656 439.039062 634.332031 441.625 634.332031 L 581.304688 634.332031 C 583.894531 634.332031 586.003906 632.222656 586.003906 629.636719 C 586.003906 627.050781 583.917969 624.9375 581.304688 624.9375 Z M 401.484375 278.460938 L 464.898438 278.460938 L 487.542969 313.375 C 488.175781 314.328125 489.441406 314.617188 490.390625 313.984375 C 491.34375 313.351562 491.632812 312.082031 491 311.132812 L 467.144531 274.34375 L 401.484375 274.34375 C 400.347656 274.34375 399.425781 275.269531 399.425781 276.402344 C 399.425781 277.539062 400.347656 278.460938 401.484375 278.460938 Z M 400.984375 478.394531 L 447.585938 478.394531 C 448.722656 478.394531 449.644531 477.46875 449.644531 476.335938 C 449.644531 475.199219 448.722656 474.277344 447.585938 474.277344 L 400.984375 474.277344 C 399.847656 474.277344 398.925781 475.199219 398.925781 476.335938 C 398.925781 477.46875 399.847656 478.394531 400.984375 478.394531 Z M 757.355469 322.691406 L 674.382812 322.691406 L 644.722656 365.707031 C 644.0625 366.660156 644.300781 367.925781 645.25 368.585938 C 646.199219 369.246094 647.464844 369.007812 648.125 368.058594 L 676.546875 326.835938 L 757.355469 326.835938 C 758.488281 326.835938 759.414062 325.910156 759.414062 324.777344 C 759.414062 323.617188 758.488281 322.691406 757.355469 322.691406 Z M 317.21875 449.152344 L 384.039062 449.152344 C 386.441406 449.152344 388.394531 447.199219 388.394531 444.800781 C 388.394531 442.398438 386.441406 440.445312 384.039062 440.445312 L 317.21875 440.445312 C 314.820312 440.445312 312.867188 442.398438 312.867188 444.800781 C 312.867188 447.199219 314.820312 449.152344 317.21875 449.152344 Z M 317.21875 468.839844 L 384.039062 468.839844 C 386.441406 468.839844 388.394531 466.886719 388.394531 464.488281 C 388.394531 462.085938 386.441406 460.132812 384.039062 460.132812 L 317.21875 460.132812 C 314.820312 460.132812 312.867188 462.085938 312.867188 464.488281 C 312.867188 466.886719 314.820312 468.839844 317.21875 468.839844 Z M 317.21875 488.527344 L 384.039062 488.527344 C 386.441406 488.527344 388.394531 486.574219 388.394531 484.171875 C 388.394531 481.773438 386.441406 479.820312 384.039062 479.820312 L 317.21875 479.820312 C 314.820312 479.820312 312.867188 481.773438 312.867188 484.171875 C 312.867188 486.574219 314.820312 488.527344 317.21875 488.527344 Z M 317.21875 508.214844 L 371.292969 508.214844 C 373.695312 508.214844 375.648438 506.261719 375.648438 503.859375 C 375.648438 501.460938 373.695312 499.507812 371.292969 499.507812 L 317.21875 499.507812 C 314.820312 499.507812 312.867188 501.460938 312.867188 503.859375 C 312.867188 506.261719 314.820312 508.214844 317.21875 508.214844 Z M 773.558594 310.789062 L 840.378906 310.789062 C 842.78125 310.789062 844.734375 308.835938 844.734375 306.4375 C 844.734375 304.035156 842.78125 302.082031 840.378906 302.082031 L 773.558594 302.082031 C 771.15625 302.082031 769.203125 304.035156 769.203125 306.4375 C 769.203125 308.835938 771.15625 310.789062 773.558594 310.789062 Z M 773.558594 330.476562 L 840.378906 330.476562 C 842.78125 330.476562 844.734375 328.523438 844.734375 326.121094 C 844.734375 323.722656 842.78125 321.769531 840.378906 321.769531 L 773.558594 321.769531 C 771.15625 321.769531 769.203125 323.722656 769.203125 326.121094 C 769.203125 328.523438 771.15625 330.476562 773.558594 330.476562 Z M 844.757812 345.808594 C 844.757812 343.410156 842.804688 341.457031 840.40625 341.457031 L 773.558594 341.457031 C 771.15625 341.457031 769.203125 343.410156 769.203125 345.808594 C 769.203125 348.210938 771.15625 350.164062 773.558594 350.164062 L 840.378906 350.164062 C 842.804688 350.164062 844.757812 348.210938 844.757812 345.808594 Z M 869.488281 477.761719 C 865.820312 479.632812 862.257812 481.773438 858.851562 484.253906 L 847.003906 492.882812 L 837.949219 509.796875 L 810.054688 522.414062 C 810.054688 522.414062 801.742188 532.441406 791.609375 545.003906 L 812.640625 592.53125 L 834.863281 561.417969 L 872.363281 558.832031 Z M 368.019531 1468.921875 L 368.019531 1270.890625 C 378.867188 1269.359375 388.183594 1262.101562 392.222656 1251.679688 L 333.160156 1251.679688 C 336.589844 1260.492188 343.796875 1267.0625 352.503906 1269.808594 L 352.503906 1469.316406 C 339.492188 1470.585938 326.695312 1474.277344 314.792969 1480.480469 L 274.679688 1500.378906 L 450.726562 1500.378906 L 410.613281 1480.480469 C 397.207031 1473.511719 382.695312 1469.6875 368.019531 1468.921875 Z M 124.042969 980.019531 L 70.417969 980.019531 C 70.472656 981.601562 70.65625 983.050781 70.894531 984.371094 L 124.042969 984.371094 C 125.257812 984.371094 126.234375 983.394531 126.234375 982.183594 C 126.234375 980.96875 125.257812 980.019531 124.042969 980.019531 Z M 235.410156 980.019531 L 220.183594 980.019531 C 218.96875 980.019531 217.992188 980.996094 217.992188 982.207031 C 217.992188 983.421875 218.96875 984.398438 220.183594 984.398438 L 235.410156 984.398438 C 236.625 984.398438 237.601562 983.421875 237.601562 982.207031 C 237.601562 980.996094 236.625 980.019531 235.410156 980.019531 Z M 133.597656 926.289062 L 82.191406 926.289062 L 82.191406 920.878906 L 115.203125 920.878906 C 116.417969 920.878906 117.394531 919.902344 117.394531 918.6875 C 117.394531 917.472656 116.417969 916.496094 115.203125 916.496094 L 82.191406 916.496094 L 82.191406 907.734375 C 69.285156 929.824219 82.003906 947.558594 82.191406 949.246094 L 82.191406 942.730469 L 108.238281 942.730469 C 109.449219 942.730469 110.425781 941.753906 110.425781 940.539062 C 110.425781 939.324219 109.449219 938.347656 108.238281 938.347656 L 82.191406 938.347656 L 82.191406 930.667969 L 133.597656 930.667969 C 134.8125 930.667969 135.789062 929.691406 135.789062 928.476562 C 135.789062 927.265625 134.8125 926.289062 133.597656 926.289062 Z M 249 921.457031 C 249 922.671875 249.976562 923.648438 251.191406 923.648438 L 272.910156 923.648438 C 273.015625 922.222656 273.175781 920.773438 273.4375 919.292969 L 251.164062 919.292969 C 249.976562 919.269531 249 920.242188 249 921.457031 Z M 257.550781 936.183594 C 256.339844 936.183594 255.363281 937.160156 255.363281 938.375 C 255.363281 939.589844 256.339844 940.5625 257.550781 940.5625 L 274.257812 940.5625 C 273.941406 939.21875 273.648438 937.792969 273.386719 936.210938 L 257.550781 936.210938 Z M 281.410156 980.019531 L 247.789062 980.019531 C 246.574219 980.019531 245.597656 980.996094 245.597656 982.207031 C 245.597656 983.421875 246.574219 984.398438 247.789062 984.398438 L 281.777344 984.398438 C 281.621094 983.027344 281.460938 981.574219 281.410156 980.019531 Z M 264.070312 969.988281 C 264.070312 971.203125 265.046875 972.179688 266.261719 972.179688 L 281.910156 972.179688 C 282.121094 970.78125 282.410156 969.304688 282.808594 967.824219 L 266.289062 967.824219 C 265.046875 967.800781 264.070312 968.777344 264.070312 969.988281 Z M 159.804688 866.328125 L 135.550781 866.328125 C 134.335938 866.328125 133.359375 867.304688 133.359375 868.519531 C 133.359375 869.734375 134.335938 870.710938 135.550781 870.710938 L 159.804688 870.710938 C 161.015625 870.710938 161.992188 869.734375 161.992188 868.519531 C 161.992188 867.304688 161.015625 866.328125 159.804688 866.328125 Z M 107.101562 872.847656 C 107.101562 871.632812 106.125 870.65625 104.910156 870.65625 L 92.691406 870.65625 L 92.691406 875.011719 L 104.9375 875.011719 C 106.125 875.039062 107.101562 874.0625 107.101562 872.847656 Z M 131.0625 856.0625 C 131.0625 854.847656 130.089844 853.871094 128.875 853.871094 L 92.691406 853.871094 L 92.691406 858.226562 L 128.898438 858.226562 C 130.089844 858.253906 131.0625 857.277344 131.0625 856.0625 Z M 225.648438 895.382812 L 261.800781 895.382812 L 261.800781 891.03125 L 225.648438 891.03125 C 224.433594 891.03125 223.457031 892.007812 223.457031 893.21875 C 223.457031 894.40625 224.433594 895.382812 225.648438 895.382812 Z M 237.601562 880.84375 C 237.601562 882.058594 238.578125 883.035156 239.792969 883.035156 L 261.800781 883.035156 L 261.800781 878.679688 L 239.792969 878.679688 C 238.578125 878.679688 237.601562 879.65625 237.601562 880.84375 Z M 234.25 870.683594 L 261.773438 870.683594 L 261.773438 866.328125 L 234.25 866.328125 C 233.035156 866.328125 232.058594 867.304688 232.058594 868.519531 C 232.058594 869.707031 233.035156 870.683594 234.25 870.683594 Z M 234.25 870.683594 " fill-opacity="1" fill-rule="nonzero"/><g clip-path="url(#a0404a65f0)"><path fill="#0097b2" d="M 879.964844 244.234375 L 250.53125 244.234375 C 236.414062 244.234375 224.988281 232.808594 224.988281 218.6875 L 224.988281 207.550781 C 224.988281 193.433594 236.414062 182.007812 250.53125 182.007812 L 879.988281 182.007812 C 894.109375 182.007812 905.535156 193.433594 905.535156 207.550781 L 905.535156 218.6875 C 905.507812 232.808594 894.082031 244.234375 879.964844 244.234375 Z M 550.773438 764.699219 L 552.171875 785.101562 C 552.171875 785.101562 556.894531 785.335938 561.410156 785.441406 C 562.015625 792.277344 571.332031 897.972656 574.050781 898.949219 C 576.871094 899.949219 717.953125 914.359375 717.953125 914.359375 L 703.808594 723.796875 L 564.046875 706.21875 L 564.046875 719.757812 L 554.785156 719.496094 L 556.128906 732.847656 C 552.4375 735.777344 548.660156 738.863281 548.660156 738.863281 Z M 336.960938 647.554688 C 327.355469 617.496094 342.105469 585.011719 370.898438 572.050781 C 397.710938 559.992188 428.640625 568.4375 445.976562 591.027344 L 423.597656 700.914062 L 387.261719 707.144531 C 387.261719 707.144531 361.425781 701.285156 346.832031 672.574219 C 343.109375 665.261719 339.808594 656.527344 336.960938 647.554688 Z M 970.480469 1029.101562 C 970.480469 1044.515625 957.972656 1057.023438 942.5625 1057.023438 L 931.53125 1057.023438 L 931.53125 1500.378906 L 876.191406 1500.378906 L 876.191406 1057.023438 L 130.511719 1057.023438 L 130.511719 1500.378906 L 75.171875 1500.378906 L 75.171875 1057.023438 L 64.140625 1057.023438 C 48.726562 1057.023438 36.21875 1044.542969 36.21875 1029.101562 C 36.21875 1013.691406 48.726562 1001.183594 64.140625 1001.183594 L 434.867188 1001.183594 L 455.371094 994.847656 L 702.808594 1001.183594 L 942.5625 1001.183594 C 957.972656 1001.183594 970.480469 1013.691406 970.480469 1029.101562 Z M 970.480469 1029.101562 " fill-opacity="1" fill-rule="nonzero"/></g><g mask="url(#ac43c34cff)"><g transform="matrix(1, 0, 0, 1, 563, 704)"><g clip-path="url(#6b9d462715)"><g clip-path="url(#71f667d3ec)"><path fill="#010101" d="M 1.074219 15.757812 L 1.074219 2.21875 L 140.835938 19.796875 Z M 1.074219 15.757812 " fill-opacity="1" fill-rule="nonzero"/></g></g></g></g><path fill="#f8b6ad" d="M 816.230469 497.289062 C 825.835938 504.941406 839.929688 502.9375 847.003906 492.882812 L 834.863281 561.390625 C 834.863281 561.390625 818.34375 552.734375 788.652344 533.523438 C 781.738281 543.5 768.121094 546.109375 758.015625 539.40625 C 744.398438 530.382812 726.980469 518.429688 719.960938 511.804688 C 707.664062 500.246094 711.488281 475.28125 711.488281 475.28125 C 730.726562 488.054688 756.589844 483.460938 770.285156 464.855469 L 770.945312 463.828125 C 768.570312 460.34375 768.332031 455.699219 770.628906 451.898438 C 773.796875 446.726562 780.527344 445.0625 785.722656 448.203125 C 798.550781 454.5625 795.121094 476.363281 795.121094 476.363281 Z M 744.871094 591.949219 C 744.953125 589.761719 748.25 570.496094 747.273438 557.011719 C 746.296875 543.523438 723.890625 533.3125 723.890625 533.3125 C 723.890625 533.3125 726.925781 522.203125 717.480469 522.226562 C 711.25 522.992188 712.808594 528.613281 712.808594 528.613281 C 706.105469 530.804688 700.5625 536.902344 696.550781 542.785156 C 691.695312 549.886719 690.640625 558.882812 693.386719 567.039062 C 696.949219 577.621094 701.144531 593.136719 697.976562 600.582031 C 686.601562 634.121094 674.332031 709.886719 674.332031 709.886719 L 762.078125 709.886719 Z M 1112.511719 705.878906 L 1040.8125 681.203125 L 1047.777344 736.304688 L 1040.8125 767.496094 L 1055.0625 788.769531 C 1065.882812 804.917969 1084.382812 814.183594 1103.777344 813.152344 Z M 470.257812 646.023438 C 465.402344 631.273438 459.59375 615.464844 453.816406 604.011719 C 453.207031 602.796875 452.601562 601.609375 451.96875 600.394531 C 450.226562 597.042969 448.195312 593.929688 445.976562 591.027344 C 424.890625 605.59375 391.585938 612.507812 391.585938 612.507812 L 405.097656 645.234375 C 406.683594 650.007812 404.96875 655.234375 400.878906 658.136719 L 394.515625 662.648438 C 390.71875 658.851562 384.671875 658.03125 379.921875 661.039062 C 374.382812 664.523438 372.746094 671.859375 376.28125 677.347656 C 377.390625 679.089844 378.789062 680.910156 380.503906 682.785156 C 388.367188 691.285156 398.183594 689.226562 398.183594 689.226562 L 387.234375 707.171875 L 383.460938 710.917969 L 425.207031 742.824219 L 443.867188 720.734375 L 443.839844 706.246094 L 446.03125 705.136719 C 467.617188 694.082031 477.832031 669.011719 470.257812 646.023438 Z M 626.300781 800.722656 C 626.300781 800.722656 630.789062 792.332031 622.765625 788.609375 C 622.765625 788.609375 624.746094 781.0625 617.9375 778.792969 C 611.128906 776.523438 584.976562 790.878906 561.566406 786.207031 L 560.089844 771.324219 L 550.824219 765.519531 C 533.144531 776.339844 516.863281 789.324219 502.425781 804.179688 L 417.34375 891.691406 L 403.648438 878.335938 L 337.066406 952.414062 C 344.453125 960.226562 352.6875 968.933594 361.105469 977.828125 C 393.832031 1012.398438 450.304688 1007.121094 476.0625 967.085938 L 552.566406 844.476562 L 565.5 845.03125 C 583.128906 845.796875 600.464844 840.308594 614.453125 829.542969 C 617.804688 826.980469 619.203125 822.601562 618.015625 818.5625 C 628.175781 812.96875 629.601562 804.65625 626.300781 800.722656 Z M 626.300781 800.722656 " fill-opacity="1" fill-rule="nonzero"/><path fill="#fde2dd" d="M 768.070312 485.414062 L 761.050781 480.691406 L 772.105469 464.644531 C 772.976562 463.007812 770.894531 461.664062 769.835938 463.085938 L 758.78125 479.160156 L 747.671875 471.691406 L 731.78125 495.335938 L 742.234375 502.355469 C 739.382812 504.363281 738.273438 507 737.851562 508.925781 L 727.007812 501.644531 L 711.121094 525.289062 L 731.546875 539.011719 C 733.921875 540.59375 736.585938 541.359375 739.25 541.359375 C 743.710938 541.359375 748.09375 539.222656 750.785156 535.238281 L 751.207031 534.605469 C 755.480469 528.269531 753.765625 519.640625 747.433594 515.367188 L 740.386719 510.644531 C 740.492188 509.296875 741.152344 506.078125 744.765625 504.070312 L 752.183594 509.058594 C 754.558594 510.644531 757.25 511.40625 759.890625 511.40625 C 764.347656 511.40625 768.730469 509.269531 771.421875 505.285156 L 771.84375 504.652344 C 776.09375 498.320312 774.402344 489.6875 768.070312 485.414062 Z M 745.847656 517.664062 C 750.914062 521.066406 752.289062 527.980469 748.859375 533.074219 L 748.433594 533.707031 C 745.03125 538.773438 738.117188 540.148438 733.023438 536.714844 L 725.820312 531.859375 L 732.679688 521.910156 L 730.410156 520.355469 L 723.550781 530.328125 L 714.917969 524.523438 L 727.746094 505.46875 Z M 769.546875 503.09375 L 769.125 503.730469 C 765.722656 508.796875 758.804688 510.140625 753.714844 506.738281 L 735.582031 494.542969 L 748.410156 475.492188 L 766.539062 487.683594 C 771.605469 491.113281 772.953125 498.027344 769.546875 503.09375 Z M 747.855469 866.277344 L 702.808594 1001.183594 L 551.589844 1001.183594 L 551.589844 1050.980469 C 551.589844 1081.410156 526.835938 1106.1875 496.382812 1106.1875 L 395.492188 1106.1875 C 365.066406 1106.1875 340.285156 1081.433594 340.285156 1050.980469 L 340.285156 990.285156 L 348.203125 990.285156 L 348.203125 1050.980469 C 348.203125 1077.054688 369.421875 1098.273438 395.492188 1098.273438 L 496.382812 1098.273438 C 522.457031 1098.273438 543.675781 1077.054688 543.675781 1050.980469 L 543.675781 1001.183594 L 434.867188 1001.183594 C 427.902344 1001.183594 422.226562 995.535156 422.226562 988.542969 C 422.226562 981.546875 427.875 975.902344 434.867188 975.902344 L 507.253906 975.902344 L 543.015625 868.808594 C 545.996094 859.890625 554.363281 853.871094 563.757812 853.871094 L 738.933594 853.871094 C 745.347656 853.898438 749.886719 860.179688 747.855469 866.277344 Z M 747.855469 866.277344 " fill-opacity="1" fill-rule="nonzero"/></svg>